<?xml version="1.0" encoding="utf-8"?>
<!-- Generator: Adobe Illustrator 12.0.1, SVG Export Plug-In . SVG Version: 6.00 Build 51448)  -->
<!DOCTYPE svg PUBLIC "-//W3C//DTD SVG 1.1//EN" "http://www.w3.org/Graphics/SVG/1.1/DTD/svg11.dtd" [
	<!ENTITY ns_svg "http://www.w3.org/2000/svg">
	<!ENTITY ns_xlink "http://www.w3.org/1999/xlink">
]>
<svg  version="1.1" id="Layer_1" xmlns="&ns_svg;" xmlns:xlink="&ns_xlink;" width="256" height="256" viewBox="0 0 256 256"
	 overflow="visible" enable-background="new 0 0 256 256" xml:space="preserve">
<g id="Layer_1_1_">
	<rect id="bounds" fill="#686868" width="256" height="256"/>
	<path id="icon" fill="#FFFFFF" d="M227.93,108.442l-1.599-1.479c-1.604-1.484-1.604-1.484-10.819-0.764
		c0,0-6.386,0.499-16.46,1.286c-1.76-2.201-3.646-4.335-5.685-6.374c-3.717-3.719-7.726-6.973-11.949-9.762l-17.499,17.02
		c-1.399-0.733-2.827-1.401-4.275-2.001l-0.011-0.004c-1.447-0.6-2.927-1.138-4.438-1.609l-0.339-24.407
		c-2.567-0.525-5.184-0.915-7.838-1.175c32.716-16.854,63.415-32.668,63.415-32.668l-20.832-44.84l-4.593,2.271l-11.229,5.551
		l-0.446-0.094l-0.073,0.352L6.544,92.162c0,0,16.283,34.259,17.092,35.961c0.099,1.957,6.187,122.982,6.187,122.982l198.5-15.063
		L227.93,108.442z M182.047,16.555c1.352-0.668,2.314-1.145,2.801-1.385c2.814,6.056,9.811,21.113,12.471,26.842
		c-1.891,0.974-10.709,5.517-23.09,11.895L182.047,16.555z M218.175,187.729l-22.453,1.545l-9.61-9.882
		c0.732-1.401,1.4-2.828,1.998-4.277l0.005-0.012c0.601-1.446,1.138-2.926,1.609-4.435l24.407-0.339
		c0.957-4.682,1.469-9.524,1.524-14.477l2.421-0.184C218.107,166.107,218.143,177.33,218.175,187.729z M114.805,163.506l9.236-0.701
		l0.802,13.804C120.22,173.469,116.662,168.885,114.805,163.506z M164.785,148.35l-5.971,0.485l-18.497-19.97
		C152.1,129.227,161.918,137.379,164.785,148.35z M146.036,149.873l-29.659,2.408l-2.455-2.65c1.7-8.181,7.227-14.953,14.622-18.376
		L146.036,149.873z M129.922,162.357l35.282-2.677c-2.217,12.186-12.876,21.427-25.7,21.427c-3.074,0-6.021-0.535-8.761-1.51
		L129.922,162.357z M217.954,116.039c0.009,2.934,0.043,13.951,0.086,27.984l-3.124,0.254c-0.22-1.565-0.471-3.121-0.785-4.654
		l-18.305-0.255l-8.918-9.627l11.868-12.204C208.938,116.744,216.018,116.19,217.954,116.039z M77.666,114.899l1.873,1.926
		c-2.802,0.219-5.053,0.395-6.615,0.517C74.173,116.698,75.774,115.874,77.666,114.899z M123.812,104.755
		c-1.509,0.472-2.988,1.01-4.437,1.609l-0.012,0.004c-1.447,0.6-2.873,1.267-4.273,2.001l-8.57-8.334
		c5.531-2.849,11.422-5.884,17.483-9.006L123.812,104.755z M143.216,35.751c10.71-5.294,20.196-9.984,27.437-13.563l-7.699,36.788
		l1.021,0.213c-8.803,4.534-18.668,9.617-28.768,14.819L143.216,35.751z M131.82,41.385l-7.87,37.59l1.148,0.24
		c-8.943,4.607-17.839,9.19-26.14,13.466l-1.368-1.331c-0.244,0.161-0.48,0.34-0.723,0.504l7.751-37.021
		C113.879,50.255,123.098,45.697,131.82,41.385z M65.32,74.261c8.782-4.341,18.255-9.025,27.902-13.794l-8.253,39.421
		c-12.677,6.531-22.579,11.632-26.824,13.819c-0.296-0.27-0.604-0.526-0.922-0.77L65.32,74.261z M62.279,128.204
		c3.151-0.246,8.941-0.699,16.491-1.289l10.807,11.502c-0.096,0.289-0.201,0.574-0.292,0.866l-24.407,0.34
		c-0.316,1.545-0.567,3.112-0.789,4.689l-7.38-8.351C59.359,134.109,61.361,131.389,62.279,128.204z M33.523,125.629
		c0,0-10.573-22.246-13.72-28.866c2.302-1.138,15.776-7.799,34.12-16.868l-6.311,30.146c-7.418,0.5-13.305,6.677-13.305,14.22
		c0,6.521,4.4,12.021,10.382,13.718l17.498,18.705l-26.992,2.191C34.253,140.145,33.523,125.629,33.523,125.629z M52.845,124.261
		c0,2.354-1.915,4.271-4.269,4.271s-4.269-1.915-4.269-4.271c0-2.354,1.915-4.269,4.269-4.269S52.845,121.907,52.845,124.261z
		 M35.73,169.506l28.612-2.171c0.164,1.003,0.332,2.005,0.535,2.994l24.407,0.339c0.472,1.509,1.01,2.99,1.608,4.438l0.006,0.011
		c0.599,1.447,1.266,2.874,1.999,4.275L75.879,196.89c0.133,0.202,0.281,0.396,0.417,0.598l-39.024,2.685
		C36.772,190.236,36.236,179.575,35.73,169.506z M39.294,240.357c-0.155-3.084-0.832-16.539-1.67-33.209l43.734-2.992
		c1.357,1.602,2.771,3.173,4.282,4.684c3.719,3.717,7.726,6.973,11.95,9.762l17.204-16.732l0.768-0.053
		c1.25,0.639,2.516,1.233,3.802,1.767l0.013,0.004c1.446,0.6,2.926,1.138,4.435,1.609l0.341,24.407
		c1.259,0.258,2.531,0.482,3.812,0.678l0.194,3.333C85.98,236.814,43.978,240.003,39.294,240.357z M133.297,233.225l-0.112-2.354
		c2.086,0.171,4.189,0.281,6.319,0.281c5.26,0,10.394-0.533,15.353-1.548l0.339-24.407c1.509-0.472,2.99-1.01,4.438-1.609
		l0.012-0.007c1.447-0.597,2.873-1.265,4.274-1.998l17.499,17.02c4.224-2.791,8.232-6.045,11.949-9.762
		c3.719-3.719,6.973-7.728,9.762-11.95l-0.971-0.998l16.037-1.097c0.051,16.161,0.091,29.146,0.1,31.979
		C214.146,227.089,174.354,230.107,133.297,233.225z"/>
	<g id="outline">
		<path fill="#FFFFFF" d="M227.93,108.441l-1.599-1.479c-1.604-1.484-1.604-1.484-10.819-0.764c0,0-123.27,9.633-142.588,11.143
			c20.842-10.736,137.51-70.837,137.51-70.837l-20.832-44.84l-4.593,2.271l-11.229,5.551l-0.446-0.094l-0.073,0.353L6.544,92.162
			c0,0,16.283,34.259,17.093,35.961c0.098,1.957,6.187,122.982,6.187,122.982l198.5-15.063L227.93,108.441z"/>
		<path fill="#FFFFFF" d="M90.897,134.835c0.6-1.447,1.267-2.873,2-4.274l-17.019-17.499c2.789-4.224,6.043-8.231,9.762-11.95
			c3.719-3.718,7.726-6.972,11.949-9.761l17.5,17.019c1.4-0.734,2.826-1.401,4.273-2.001l0.012-0.004
			c1.448-0.6,2.928-1.138,4.437-1.609l0.341-24.407c4.958-1.015,10.093-1.547,15.352-1.547c5.26,0,10.394,0.532,15.353,1.547
			l0.339,24.407c1.511,0.472,2.99,1.01,4.438,1.609l0.011,0.004c1.448,0.6,2.876,1.268,4.275,2.001l17.499-17.02
			c4.224,2.789,8.232,6.043,11.949,9.762c3.719,3.719,6.973,7.728,9.762,11.95l-17.018,17.499c0.732,1.401,1.399,2.827,1.998,4.274
			l0.005,0.012c0.601,1.447,1.139,2.928,1.609,4.437l24.407,0.34c1.017,4.958,1.547,10.095,1.547,15.352
			c0,5.26-0.533,10.396-1.547,15.354l-24.407,0.339c-0.472,1.509-1.009,2.988-1.609,4.435l-0.005,0.012
			c-0.598,1.449-1.266,2.876-1.998,4.277l17.018,17.498c-2.789,4.223-6.043,8.231-9.762,11.95
			c-3.717,3.717-7.726,6.971-11.949,9.762l-17.499-17.02c-1.401,0.733-2.827,1.401-4.274,1.998l-0.012,0.007
			c-1.447,0.6-2.929,1.138-4.438,1.609l-0.339,24.407c-4.959,1.015-10.093,1.548-15.353,1.548c-5.258,0-10.394-0.533-15.352-1.548
			l-0.341-24.407c-1.509-0.472-2.988-1.01-4.435-1.609l-0.013-0.004c-1.447-0.6-2.874-1.268-4.274-2.001l-17.499,17.02
			c-4.225-2.789-8.231-6.045-11.95-9.762c-3.718-3.719-6.973-7.728-9.762-11.95l17.019-17.498c-0.733-1.401-1.4-2.828-1.999-4.275
			l-0.006-0.011c-0.599-1.447-1.137-2.929-1.608-4.438l-24.407-0.339c-1.015-4.959-1.547-10.095-1.547-15.354
			c0-5.257,0.533-10.394,1.547-15.352l24.407-0.34c0.472-1.509,1.01-2.989,1.608-4.437L90.897,134.835z"/>
	</g>
</g>
</svg>
