<?xml version="1.0" encoding="utf-8"?>
<!-- Generator: Adobe Illustrator 11 Build 196, SVG Export Plug-In . SVG Version: 6.0.0 Build 78)  -->
<!DOCTYPE svg PUBLIC "-//W3C//DTD SVG 1.0//EN"    "http://www.w3.org/TR/2001/REC-SVG-20010904/DTD/svg10.dtd" [
	<!ENTITY ns_flows "http://ns.adobe.com/Flows/1.0/">
	<!ENTITY ns_svg "http://www.w3.org/2000/svg">
	<!ENTITY ns_xlink "http://www.w3.org/1999/xlink">
]>
<svg  xmlns="&ns_svg;" xmlns:xlink="&ns_xlink;" xmlns:a="http://ns.adobe.com/AdobeSVGViewerExtensions/3.0/"
	 width="256" height="256" viewBox="0 0 256 256" overflow="visible" enable-background="new 0 0 256 256" xml:space="preserve">
	
		<g id="Layer_1">
			<rect id="bounds" fill="#2D2D2D" width="256" height="256"/> 
			<path id="outline" fill-rule="evenodd" clip-rule="evenodd" fill="#FFFFFF" d="M210.5,83.5v-50h-59v-19h-40v19h-59v50h37.893
				c-5.153,5.166-9.37,11.261-12.41,18H52.5v50h25.483c2.848,6.314,6.738,12.052,11.456,17H52.5v50h62.051l17.949,35l20.125-35
				H210.5v-50h-32.938c4.718-4.948,8.607-10.686,11.456-17H210.5v-50h-21.481c-3.04-6.739-7.257-12.834-12.41-18H210.5z
				 M153.811,155.849h11.064l-3.597-62.142h-14.751l-8.574,24.894c-2.397,7.284-4.518,14.936-6.178,21.667h-0.276
				c-1.567-6.916-3.504-14.291-5.716-21.574l-8.113-24.986h-14.937l-4.149,62.142h10.604l1.383-24.985
				c0.461-8.482,0.83-18.348,1.106-26.461h0.185c1.659,7.745,3.872,16.227,6.27,24.156l8.297,26.552h8.667l9.128-26.921
				c2.766-7.837,5.348-16.227,7.375-23.787h0.277c-0.092,8.482,0.367,18.071,0.736,26.092L153.811,155.849z"/>
			<path id="icon" fill-rule="evenodd" clip-rule="evenodd" fill="#FFFFFF" d="M210.5,83.5v-50h-59v-19h-40v19h-59v50h37.893
				c-5.153,5.166-9.37,11.261-12.41,18H52.5v50h25.483c2.848,6.314,6.738,12.052,11.456,17H52.5v50h62.051l17.949,35l20.125-35
				H210.5v-50h-32.938c4.718-4.948,8.607-10.686,11.456-17H210.5v-50h-21.481c-3.04-6.739-7.257-12.834-12.41-18H210.5z M64.5,45.5
				h133v26h-37.856c-7.922-3.772-16.785-5.889-26.144-5.889s-18.221,2.117-26.143,5.889H64.5V45.5z M64.5,139.5v-26h9.516
				c-0.912,4.19-1.405,8.537-1.405,13c0,4.464,0.494,8.81,1.405,13H64.5z M197.5,206.5h-133v-26h40.875
				c8.415,4.392,17.976,6.889,28.125,6.889c10.149,0,19.711-2.497,28.126-6.889H197.5V206.5z M197.5,113.5v26h-4.515
				c0.912-4.19,1.405-8.536,1.405-13c0-4.463-0.493-8.81-1.405-13H197.5z M153.811,155.849h11.064l-3.597-62.142h-14.751
				l-8.574,24.894c-2.397,7.284-4.518,14.936-6.178,21.667h-0.276c-1.567-6.916-3.504-14.291-5.716-21.574l-8.113-24.986h-14.937
				l-4.149,62.142h10.604l1.383-24.985c0.461-8.482,0.83-18.348,1.106-26.461h0.185c1.659,7.745,3.872,16.227,6.27,24.156
				l8.297,26.552h8.667l9.128-26.921c2.766-7.837,5.348-16.227,7.375-23.787h0.277c-0.092,8.482,0.367,18.071,0.736,26.092
				L153.811,155.849z M132.508,176.028c-27.108,0-49.083-21.976-49.083-49.083s21.976-49.083,49.083-49.083
				c27.108,0,49.084,21.976,49.084,49.083S159.616,176.028,132.508,176.028z"/>
		</g>
	</svg>
