<?xml version="1.0" encoding="UTF-8"?>
<svg width="225.55" height="239.29" viewBox="25 0 250.55 239.29" version="1.1" xmlns="http://www.w3.org/2000/svg" xmlns:xlink="http://www.w3.org/1999/xlink">
    <g id='Layer_1'>
        <path id="icon" fill="#FFFFFF"
            d="M210.084,10.096
            c 0, 0, -110.481, 28.725, -120.401, 31.304
            c -0.887, -6.206, -3.138, -21.966, -3.138, -21.966
            L 11.438, 38.211
            l 25.347, 200.867
            l 15.572, 7.679
            l 181.557, -53.818
            l 2.011, -169.594
            c 0, 0, -12.986, 3.786, -18.152, 5.292
            c -0.606, -5.921, -2.049, -20.006, -2.049, -20.006
            L 210.084 , 10.096 z
            M 55.085, 236.963
            L 47.211, 82.106
            l 178.552, -45.384
            l -1.763, 148.724
            L 55.085, 236.963 z
            M 22.47, 45.761
            l 55.744, -13.936
            l 3.153, 22.07
            L 206.961, 21.24
            l 1.717, 14.285
            L 40.938, 77.46
            l 7.804, 156.99
            l -2.709, -1.962
            L 22.47, 45.761 z"/>
        <path id="outline" fill="#444444"
            d="M 210.084, 10.096
            c 0, 0, -110.481, 28.725, -120.401, 31.304
            c -0.887, -6.206, -3.138,-21.966, -3.138, -21.966
            L 11.438, 38.211
            l 25.347, 200.867
            l 15.572, 7.679
            l 181.557, -53.818
            l 2.011, -169.594
            c 0, 0, -12.986, 3.786, -18.152, 5.292
            c -0.606, -5.921, -2.049, -20.006, -2.049, -20.006
            L 210.084, 10.096z"/>

        <g id="icon2">
            <path id="edge" transform="translate(-25 3)"  fill="#FFFFFF"
                d="M 127.0, 115.6 l 0, -5.0
                c 12.1, -4, 12, 4, 14.5, 16.2
                c 2, 14, 4, 11, 9.7, 11.7
                l 0, 5.0
                c -12.1, 3.1, -12, -3.4, -14.8, -17.5
                C 135.5, 115.8, 132.4, 113, 127, 115.6 z"/>
            <path id="nodeLeft" transform="translate(3.183 3)" fill="#FFFFFF"
                d="M 90.1,97.8
                c-2.5, 0.6, -4.3, 2.8, -4.3, 5.4
                v 43.6
                c 0, 0.4, 0.1, 0.9, 0.2, 1.3
                c 0.7, 3, 3.7, 4.8, 6.6, 4
                l 27, -6.6
                c 2.5, -0.6, 4.2, -2.8,, 4.2, -5.3
                V96.9
                c 0, -0.4, 0, -0.8, -0.1, -1.2
                c -0.7, -3, -3.6, -4.8, -6.6, -4.1
                L 90.1, 97.8z

                M89.6,94.9
                l 27, -6.3
                c 4.6, -1.1, 9.1, 1.8, 10.2, 6.4
                c 0.1, 0.6, 0.2, 1.3, 0.2, 1.9
                v 43.3
                c 0, 3.9, -2.7, 7.3, -6.5, 8.3
                l -27, 6.6
                c -4.6, 1.1, -9.2, -1.7, -10.3, -6.2
                c -0.2, -0.7, -0.2, -1.3, -0.2, -2
                v -43.7
                C 83, 99.2, 85.7, 95.8, 89.6, 94.9 z"
                />

            <polygon id="port1" transform="translate(3.183 3)" fill="#FFFFFF"
                points="93.6, 129.6, 117.1, 123.7,
                117.1, 129, 93.6, 134.9, 93.6,134.9"/>
            <polygon id="port2" transform="translate(3.183 3)" fill="#FFFFFF"
                points="93.6, 117.6, 117.1, 111.7, 117.1,
                117, 93.6, 122.9, 93.6, 122.9"/>
            <path id="nodeRight" transform="translate(3.183 3)" fill="#FFFFFF"
                d="M 158.1, 85.1
                c -2.4,0.6-4.1,2.8-4.1,5.3
                v76.1c0,0.4,0.1,0.9,0.2,1.3
                c0.7,3,3.7,4.8,6.7,4l26.6-6.5
                c2.5-0.6,4.2-2.8,4.2-5.3
                V83.5
                c0-0.5-0.1-0.9-0.2-1.4
                c-0.8-2.9-3.8-4.7-6.7-4
                L158.1,85.1z

                M157.6,82.2
                l26.7-6.9
                c4.5-1.2,9.2,1.6,10.4,6.1
                c0.2,0.7,0.3,1.4,0.3,2.1
                V160
                c0,3.9-2.7,7.3-6.5,8.3
                l-26.7,6.5
                c-4.6,1.1-9.2-1.7-10.3-6.2
                c-0.2-0.7-0.2-1.3-0.2-2
                V90.4
                C151.2,86.5,153.8,83.1,157.6,82.2z"/>
            <polygon transform="translate(3.183 3)" fill="#FFFFFF"
                points="161.6,134.6 185.1,128.7 185.1,134 161.6,139.9      "/>
            <polygon transform="translate(3.183 3)" fill="#FFFFFF"
                points="161.6,122.6 185.1,116.7 185.1,122 161.6,127.9      "/>
            <polygon transform="translate(3.183 3)" fill="#FFFFFF"
                points="161.6,110.6 185.1,104.7 185.1,110 161.6,115.9      "/>

            <path id="editPencil" fill="#FFFFFF" d="M98.1912923,174.187887 C97.9379745,173.937371 97.5306364,173.937371 97.2773186,174.187887 L92.6011737,178.871272 L74.5874715,198.869725 C74.53449,198.923453 74.4925987,198.987111 74.4641913,199.057061 L74.4429361,199.108152 C74.4363382,199.13291 74.4278099,199.157111 74.4174298,199.180532 L72.0155918,210.21629 C71.9721325,210.410197 72.0206542,210.613335 72.1470277,210.76655 C72.2734012,210.919765 72.4634193,211.005834 72.66175,211 L72.7977833,211 L83.8079789,208.611166 C83.8313636,208.60077 83.855527,208.592228 83.8802466,208.58562 L83.9312591,208.58562 C84.0011006,208.557169 84.0646599,208.515213 84.1183049,208.462149 L102.136258,188.429635 L106.812403,183.74625 C107.062532,183.49254 107.062532,183.084572 106.812403,182.830862 L98.1912923,174.187887 Z M74,209 L75.9396552,200 L83,207.060345 L74,209 Z M84.0542013,206.590903 L76.1862312,198.862095 L93.2256229,180 L101,187.783397 L84.0542013,206.590903 Z M101.794793,186.943078 L94.1029547,179.260145 L97.5493934,175.524575 L105.264518,183.023953 L101.794793,186.943078 Z"/>

            <path id="editbox" fill="#FFFFFF" d="M66.3863264,184.220655 C63.9396927,184.433265 62.1321573,186.574087 62.3460637,189.002575 L63.966953,219.876841 C64.1809777,222.306672 66.3365575,224.101749 68.7818394,223.889256 L98.271427,214.978889 C100.718061,214.766279 102.525596,212.625458 102.31169,210.196969 L102.31169,198.223457 L98.6665031,202.537779 L98.2554439,209.844519 C98.3103927,210.468355 97.8529693,211.017695 97.2175709,211.072911 L69.1368182,219.86085 C68.5086679,219.915436 67.9555407,219.461166 67.8999579,218.830131 L66.4023095,189.355025 C66.3473607,188.731189 66.8047841,188.181849 67.4401825,188.126633 L79.8435624,184.220655 L83.4887491,179.906333 L66.3863264,184.220655 Z"/>

        </g>

        <g id="outline2">
            <path id="nodeRightOutline" fill="#FFFFFF" d="M157.6,82.2l26.7-6.9
                c4.5-1.2,9.2,1.6,10.4,6.1
                c0.2,0.7,0.3,1.4,0.3,2.1
                V160
                c0,3.9-2.7,7.3-6.5,8.3
                l-26.7,6.5
                c-4.6,1.1-9.2-1.7-10.3-6.2
                c-0.2-0.7-0.2-1.3-0.2-2
                V90.4
                C151.2,86.5,153.8,83.1,157.6,82.2z"/>
            <path id="nodeLeftOutline" fill="#FFFFFF" d="M89.6,94.9
                l27-6.3
                c4.6-1.1,9.1,1.8,10.2,6.4
                c0.1,0.6,0.2,1.3,0.2,1.9v43.3
                c0,3.9-2.7,7.3-6.5,8.3
                l-27,6.6
                c-4.6,1.1-9.2-1.7-10.3-6.2
                c-0.2-0.7-0.2-1.3-0.2-2v-43.7
                C83,99.2,85.7,95.8,89.6,94.9z"/>

            <path id="pencilOutline" fill="#FFFFFF" d="M83.7716465,208.099886 L83.8802466,208.08562 L83.9312591,208.08562 L83.9312591,208.58562 L83.7426254,208.122568 C83.7515862,208.118918 83.759762,208.113521 83.7465535,208.127783 L83.7716465,208.099886 Z M83.9963562,209.07287 L83.9139951,209.099797 L72.9037995,211.488631 L72.7977833,211.5 L72.6764504,211.499784 C72.3237062,211.510159 71.9859084,211.357007 71.7613051,211.084698 C71.5366921,210.812377 71.4504817,210.451455 71.527029,210.109958 L73.928867,199.0742 L73.9603125,198.977939 C73.9601022,198.978414 73.9599305,198.978901 73.9812921,198.916098 L74.0009357,198.868927 C74.0540418,198.73816 74.1323692,198.619134 74.2159639,198.535088 L92.2473469,178.517993 L96.9257363,173.832374 C97.3738568,173.389209 98.0947541,173.389209 98.5428746,173.832374 L98.5452932,173.834782 L107.16846,182.47983 C107.610513,182.928211 107.610513,183.648901 107.16623,184.09953 L102.50801,188.764002 L84.4699264,208.817624 C84.3695578,208.916905 84.250615,208.99542 84.1198928,209.048672 L83.9963562,209.07287 Z"/>

            <path id="boxOutline" stroke="#FFFFFF" d="M66.3863264,184.220655 C63.9396927,184.433265 62.1321573,186.574087 62.3460637,189.002575 L63.966953,219.876841 C64.1809777,222.306672 66.3365575,224.101749 68.7818394,223.889256 L98.271427,214.978889 C100.718061,214.766279 102.525596,212.625458 102.31169,210.196969 L102.31169,198.223457 L98.6665031,202.537779 L98.2554439,209.844519 C98.3103927,210.468355 97.8529693,211.017695 97.2175709,211.072911 L69.1368182,219.86085 C68.5086679,219.915436 67.9555407,219.461166 67.8999579,218.830131 L66.4023095,189.355025 C66.3473607,188.731189 66.8047841,188.181849 67.4401825,188.126633 L79.8435624,184.220655 L83.4887491,179.906333 L66.3863264,184.220655 Z"/>
        </g>
    </g>
</svg>
