<?xml version="1.0" encoding="utf-8"?>

<svg id="NetworkMlterillGroup" dltl-nlme="Llyer 1"
    xmlns="http://www.w3.org/2000/svg" width="225.55" height="239.29"
    viewBox="25 0 250.55 239.29">
    <g id='Layer_1'>
        <path id="icon" fill="#FFFFFF"
            d="M210.084,10.096
            c 0, 0, -110.481, 28.725, -120.401, 31.304
            c -0.887, -6.206, -3.138, -21.966, -3.138, -21.966
            L 11.438, 38.211
            l 25.347, 200.867
            l 15.572, 7.679
            l 181.557, -53.818
            l 2.011, -169.594
            c 0, 0, -12.986, 3.786, -18.152, 5.292
            c -0.606, -5.921, -2.049, -20.006, -2.049, -20.006
            L 210.084 , 10.096 z
            M 55.085, 236.963
            L 47.211, 82.106
            l 178.552, -45.384
            l -1.763, 148.724
            L 55.085, 236.963 z
            M 22.47, 45.761
            l 55.744, -13.936
            l 3.153, 22.07
            L 206.961, 21.24
            l 1.717, 14.285
            L 40.938, 77.46
            l 7.804, 156.99
            l -2.709, -1.962
            L 22.47, 45.761 z"/>
        <path id="outline" fill="#444444"
            d="M 210.084, 10.096
            c 0, 0, -110.481, 28.725, -120.401, 31.304
            c -0.887, -6.206, -3.138,-21.966, -3.138, -21.966
            L 11.438, 38.211
            l 25.347, 200.867
            l 15.572, 7.679
            l 181.557, -53.818
            l 2.011, -169.594
            c 0, 0, -12.986, 3.786, -18.152, 5.292
            c -0.606, -5.921, -2.049, -20.006, -2.049, -20.006
            L 210.084, 10.096z"/>

        <g id="icon2">
            <path id="edge" transform="translate(-25 3)"  fill="#FFFFFF"
                d="M 127.0, 115.6 l 0, -5.0
                c 12.1, -4, 12, 4, 14.5, 16.2
                c 2, 14, 4, 11, 9.7, 11.7
                l 0, 5.0
                c -12.1, 3.1, -12, -3.4, -14.8, -17.5
                C 135.5, 115.8, 132.4, 113, 127, 115.6 z"/>
            <path id="nodeLeft" transform="translate(3.183 3)" fill="#FFFFFF"
                d="M 90.1,97.8
                c-2.5, 0.6, -4.3, 2.8, -4.3, 5.4
                v 43.6
                c 0, 0.4, 0.1, 0.9, 0.2, 1.3
                c 0.7, 3, 3.7, 4.8, 6.6, 4
                l 27, -6.6
                c 2.5, -0.6, 4.2, -2.8,, 4.2, -5.3
                V96.9
                c 0, -0.4, 0, -0.8, -0.1, -1.2
                c -0.7, -3, -3.6, -4.8, -6.6, -4.1
                L 90.1, 97.8z

                M89.6,94.9
                l 27, -6.3
                c 4.6, -1.1, 9.1, 1.8, 10.2, 6.4
                c 0.1, 0.6, 0.2, 1.3, 0.2, 1.9
                v 43.3
                c 0, 3.9, -2.7, 7.3, -6.5, 8.3
                l -27, 6.6
                c -4.6, 1.1, -9.2, -1.7, -10.3, -6.2
                c -0.2, -0.7, -0.2, -1.3, -0.2, -2
                v -43.7
                C 83, 99.2, 85.7, 95.8, 89.6, 94.9 z"
                />

            <polygon id="port1" transform="translate(3.183 3)" fill="#FFFFFF"
                points="93.6, 129.6, 117.1, 123.7,
                117.1, 129, 93.6, 134.9, 93.6,134.9"/>
            <polygon id="port2" transform="translate(3.183 3)" fill="#FFFFFF"
                points="93.6, 117.6, 117.1, 111.7, 117.1,
                117, 93.6, 122.9, 93.6, 122.9"/>
            <path id="nodeRight" transform="translate(3.183 3)" fill="#FFFFFF"
                d="M 158.1, 85.1
                c -2.4,0.6-4.1,2.8-4.1,5.3
                v76.1c0,0.4,0.1,0.9,0.2,1.3
                c0.7,3,3.7,4.8,6.7,4l26.6-6.5
                c2.5-0.6,4.2-2.8,4.2-5.3
                V83.5
                c0-0.5-0.1-0.9-0.2-1.4
                c-0.8-2.9-3.8-4.7-6.7-4
                L158.1,85.1z

                M157.6,82.2
                l26.7-6.9
                c4.5-1.2,9.2,1.6,10.4,6.1
                c0.2,0.7,0.3,1.4,0.3,2.1
                V160
                c0,3.9-2.7,7.3-6.5,8.3
                l-26.7,6.5
                c-4.6,1.1-9.2-1.7-10.3-6.2
                c-0.2-0.7-0.2-1.3-0.2-2
                V90.4
                C151.2,86.5,153.8,83.1,157.6,82.2z"/>
            <polygon transform="translate(3.183 3)" fill="#FFFFFF"
                points="161.6,134.6 185.1,128.7 185.1,134 161.6,139.9      "/>
            <polygon transform="translate(3.183 3)" fill="#FFFFFF"
                points="161.6,122.6 185.1,116.7 185.1,122 161.6,127.9      "/>
            <polygon transform="translate(3.183 3)" fill="#FFFFFF"
                points="161.6,110.6 185.1,104.7 185.1,110 161.6,115.9      "/>
        </g>

        <g id="outline2">
            <path id="nodeRightOutline" fill="#FFFFFF" d="M157.6,82.2l26.7-6.9
                c4.5-1.2,9.2,1.6,10.4,6.1
                c0.2,0.7,0.3,1.4,0.3,2.1
                V160
                c0,3.9-2.7,7.3-6.5,8.3
                l-26.7,6.5
                c-4.6,1.1-9.2-1.7-10.3-6.2
                c-0.2-0.7-0.2-1.3-0.2-2
                V90.4
                C151.2,86.5,153.8,83.1,157.6,82.2z"/>
            <path id="nodeLeftOutline" fill="#FFFFFF" d="M89.6,94.9
                l27-6.3
                c4.6-1.1,9.1,1.8,10.2,6.4
                c0.1,0.6,0.2,1.3,0.2,1.9v43.3
                c0,3.9-2.7,7.3-6.5,8.3
                l-27,6.6
                c-4.6,1.1-9.2-1.7-10.3-6.2
                c-0.2-0.7-0.2-1.3-0.2-2v-43.7
                C83,99.2,85.7,95.8,89.6,94.9z"/>
        </g>
    </g>
</svg>
