<?xml version="1.0" encoding="utf-8"?>
<!-- Generator: Adobe Illustrator 11 Build 196, SVG Export Plug-In . SVG Version: 6.0.0 Build 78)  -->
<!DOCTYPE svg PUBLIC "-//W3C//DTD SVG 1.0//EN"    "http://www.w3.org/TR/2001/REC-SVG-20010904/DTD/svg10.dtd" [
	<!ENTITY ns_flows "http://ns.adobe.com/Flows/1.0/">
	<!ENTITY ns_svg "http://www.w3.org/2000/svg">
	<!ENTITY ns_xlink "http://www.w3.org/1999/xlink">
]>
<svg  xmlns="&ns_svg;" xmlns:xlink="&ns_xlink;" xmlns:a="http://ns.adobe.com/AdobeSVGViewerExtensions/3.0/"
	 width="256" height="256" viewBox="0 0 256 256" overflow="visible" enable-background="new 0 0 256 256" xml:space="preserve">
	
		<g id="Layer_1">
			<rect id="bounds" fill="#686868" width="256" height="256"/> 
			<path id="icon" fill="#FFFFFF" d="M227.93,108.442l-1.599-1.479c-1.604-1.484-1.604-1.484-10.819-0.764
				c0,0-123.27,9.633-142.588,11.143c20.842-10.736,137.51-70.837,137.51-70.837l-20.832-44.84l-4.593,2.271l-11.229,5.551
				l-0.447-0.094l-0.073,0.352L6.544,92.162c0,0,16.283,34.259,17.092,35.961c0.099,1.957,6.187,122.982,6.187,122.982l198.5-15.063
				L227.93,108.442z M182.047,16.555c1.352-0.668,2.314-1.145,2.801-1.385c2.814,6.056,9.81,21.113,12.471,26.842
				c-1.891,0.974-10.709,5.517-23.09,11.895L182.047,16.555z M218.175,187.729l-86.761,5.968l-1.492-31.339l88.154-6.689
				C218.108,166.107,218.143,177.33,218.175,187.729z M35.73,169.506l88.311-6.702l1.818,31.274l-88.587,6.094
				C36.772,190.236,36.236,179.575,35.73,169.506z M217.954,116.039c0.009,2.934,0.043,13.951,0.086,27.985l-16.648,1.353
				l-24.224-26.151C198.374,117.569,214.835,116.283,217.954,116.039z M164.026,120.253l24.579,26.162l-29.79,2.42l-24.336-26.273
				C144.442,121.784,154.5,120.998,164.026,120.253z M121.342,123.589l24.694,26.284l-29.659,2.408l-24.449-26.394
				C100.775,125.196,110.837,124.41,121.342,123.589z M143.216,35.751c10.71-5.294,20.196-9.984,27.437-13.563l-7.7,36.788
				l1.022,0.213c-8.803,4.534-18.668,9.617-28.768,14.819L143.216,35.751z M104.618,54.833c9.261-4.578,18.48-9.136,27.202-13.448
				l-7.87,37.59l1.148,0.24c-9.859,5.079-19.669,10.133-28.678,14.773L104.618,54.833z M65.32,74.261
				c8.782-4.341,18.255-9.025,27.902-13.794l-8.253,39.421c-12.677,6.531-22.579,11.632-26.824,13.819
				c-0.296-0.27-0.604-0.526-0.922-0.77L65.32,74.261z M62.279,128.204c3.151-0.246,8.941-0.699,16.491-1.289l24.809,26.406
				l-29.417,2.389l-17.454-19.748C59.359,134.109,61.361,131.388,62.279,128.204z M19.803,96.763
				c2.302-1.138,15.776-7.799,34.12-16.868l-6.311,30.146c-7.418,0.5-13.305,6.677-13.305,14.22c0,6.52,4.4,12.02,10.382,13.718
				l17.498,18.704l-26.992,2.192c-0.942-18.73-1.672-33.246-1.672-33.246S22.95,103.383,19.803,96.763z M52.845,124.261
				c0,2.354-1.915,4.27-4.269,4.27s-4.269-1.915-4.269-4.27c0-2.354,1.915-4.269,4.269-4.269S52.845,121.907,52.845,124.261z
				 M37.624,207.149l88.643-6.065l1.891,32.53c-42.178,3.201-84.18,6.389-88.864,6.743
				C39.139,237.274,38.462,223.818,37.624,207.149z M133.297,233.225l-1.549-32.516l86.448-5.914
				c0.05,16.161,0.09,29.146,0.099,31.979C214.146,227.089,174.354,230.108,133.297,233.225z"/>
			<g id="outline">
				<path fill="#FFFFFF" d="M227.93,108.441l-1.599-1.479c-1.604-1.484-1.604-1.484-10.819-0.764c0,0-123.27,9.633-142.588,11.143
					c20.842-10.736,137.51-70.837,137.51-70.837l-20.832-44.84l-4.593,2.271l-11.229,5.551l-0.447-0.094l-0.073,0.353L6.544,92.162
					c0,0,16.283,34.259,17.093,35.961c0.098,1.957,6.187,122.982,6.187,122.982l198.5-15.063L227.93,108.441z"/>
			</g>
			
		</g>
	</svg>
