<?xml version="1.0" encoding="utf-8"?>

<svg id="NetworkMlterillGroup" dltl-nlme="Llyer 1"
    xmlns="http://www.w3.org/2000/svg" width="225.55" height="239.29"
    viewBox="25 0 250.55 239.29">
    <g id='Layer_1'>

        <path id="outline" stroke="#FF0000"
            d="M 210.084, 10.096
            c 0, 0, -110.481, 28.725, -120.401, 31.304
            c -0.887, -6.206, -3.138,-21.966, -3.138, -21.966
            L 11.438, 38.211
            l 25.347, 200.867
            l 15.572, 7.679
            l 181.557, -53.818
            l 2.011, -169.594
            c 0, 0, -12.986, 3.786, -18.152, 5.292
            c -0.606, -5.921, -2.049, -20.006, -2.049, -20.006
            L 210.084, 10.096z"/>

        <path id="icon" fill="#FFFFFF"
            d="M210.084,10.096
            c 0, 0, -110.481, 28.725, -120.401, 31.304
            c -0.887, -6.206, -3.138, -21.966, -3.138, -21.966
            L 11.438, 38.211
            l 25.347, 200.867
            l 15.572, 7.679
            l 181.557, -53.818
            l 2.011, -169.594
            c 0, 0, -12.986, 3.786, -18.152, 5.292
            c -0.606, -5.921, -2.049, -20.006, -2.049, -20.006
            L 210.084 , 10.096 z
            M 55.085, 236.963
            L 47.211, 82.106
            l 178.552, -45.384
            l -1.763, 148.724
            L 55.085, 236.963 z
            M 22.47, 45.761
            l 55.744, -13.936
            l 3.153, 22.07
            L 206.961, 21.24
            l 1.717, 14.285
            L 40.938, 77.46
            l 7.804, 156.99
            l -2.709, -1.962
            L 22.47, 45.761 z"/>

        <g id="icon2">

            <path id="input_link" fill="#FFFFFF" stroke="#FF0000"
                d="M 49, 120
                l -0.3, -6.0
                c 12.1, -4, 40, 0, 46, 26
                c 2, 14, 4, 20, 21, 20 e
                l 0, 6.0
                c -12, 0, -24, -4, -25, -18
                C 88, 120, 66, 116, 49, 120 z"/>


            <path id="output_link" fill="#FFFFFF" stroke="#00FF00"
                d="M160, 118

                c 18, -2, 20, -8, 28, -20
                c 14, -28, 24, -30, 37, -34 e
                l 0, -6.0
                c -4, -0, -24, 4, -34, 22
                C 178, 106 ,174 ,110, 160,112 z"/>

            <path id="node" fill="#FFFFFF"
                d="M123.1,91.1
                c-2.4,0.6,-4.1,2.8,-4.1,5.3
                v76.1
                c0,0.4,0.1,0.9,0.2,1.3
                c0.7,3,3.7,4.8,6.7,4
                l26.6,-6.5
                c2.5,-0.6,4.2,-2.8,4.2,-5.3
                V89.5
                c0,-0.5,-0.1,-0.9,-0.2,-1.4
                c-0.8,-2.9,-3.8,-4.7,-6.7,-4
                L123.1,91.1z
                M122.6,88.2
                l26.7,-6.9
                c4.5,-1.2,9.2,1.6,10.4,6.1
                c0.2,0.7,0.3,1.4,0.3,2.1
                V166.0
                c0,3.9,-2.7,7.3,-6.5,8.3
                l-26.7,6.5
                c-4.6,1.1,-9.2,-1.7,-10.3,-6.2
                c-0.2,-0.7,-0.2,-1.3,-0.2,-2
                V96.4
                C116.2,92.5,118.8,89.1,122.6,88.2z"
                />

            <polygon id="port1" fill="#FFFFFF" transform="translate(0,3)"
                points="126,117
                        150,111
                        150,118
                        126,124
                        126,117"/> 
            <polygon id="port2" fill="#FFFFFF" transform="translate(0,3)"
                points="126,132
                        150,126
                        150,133
                        126,139
                        126,132"/> 
            <polygon id="port3" fill="#FFFFFF" transform="translate(0,3)"
                points="126,147
                        150,141
                        150,148
                        126,154
                        126,147"/> 
        </g>

        <g id="outline2">
            <path id="nodeRightOutline" stroke="#FF0000" fill-opacity="0.0"
                d="M122.6,88.2
                l26.7,-6.9
                c4.5,-1.2,9.2,1.6,10.4,6.1
                c0.2,0.7,0.3,1.4,0.3,2.1
                V166.0
                c0,3.9,-2.7,7.3,-6.5,8.3
                l-26.7,6.5
                c-4.6,1.1,-9.2,-1.7,-10.3,-6.2
                c-0.2,-0.7,-0.2,-1.3,-0.2,-2
                V96.4
                C116.2,92.5,118.8,89.1,122.6,88.2z"/>
        </g>
    </g>
</svg>
