<?xml version="1.0" encoding="utf-8"?>
<!-- Generator: Adobe Illustrator 11 Build 196, SVG Export Plug-In . SVG Version: 6.0.0 Build 78)  -->
<!DOCTYPE svg PUBLIC "-//W3C//DTD SVG 1.0//EN"    "http://www.w3.org/TR/2001/REC-SVG-20010904/DTD/svg10.dtd" [
	<!ENTITY ns_flows "http://ns.adobe.com/Flows/1.0/">
	<!ENTITY ns_svg "http://www.w3.org/2000/svg">
	<!ENTITY ns_xlink "http://www.w3.org/1999/xlink">
]>
<svg  xmlns="&ns_svg;" xmlns:xlink="&ns_xlink;" xmlns:a="http://ns.adobe.com/AdobeSVGViewerExtensions/3.0/"
	 width="256" height="256" viewBox="0 0 256 256" overflow="visible" enable-background="new 0 0 256 256" xml:space="preserve">
	
		<g id="Layer_1">
			<rect id="bounds" fill="#2D2D2D" width="256" height="256"/> 
			<g id="outline">
				<line fill="none" x1="105.978" y1="56.404" x2="134.389" y2="29.103"/>
				<line fill="none" x1="134.919" y1="79.559" x2="105.978" y2="56.404"/>
				<line fill="none" x1="105.978" y1="105.027" x2="134.919" y2="79.559"/>
				<line fill="none" x1="134.919" y1="130.496" x2="105.978" y2="105.027"/>
				<line fill="none" x1="105.978" y1="155.965" x2="134.919" y2="130.496"/>
				<line fill="none" x1="134.919" y1="181.434" x2="105.978" y2="155.965"/>
				<line fill="none" x1="105.978" y1="204.588" x2="134.919" y2="181.434"/>
				<line fill="none" x1="134.504" y1="231.899" x2="105.978" y2="204.588"/>
				<path fill="#FFFFFF" d="M132.768,232.037c0.003-0.001,0.005-0.001,0.007-0.001c52.395-4.212,93.602-48.062,93.602-101.54
					c0-54.372-42.595-98.791-96.236-101.718c-0.043-0.003-0.085-0.006-0.128-0.008c-0.807-0.043-8.877-0.089-8.97-0.085
					C66.379,30.51,22.624,75.39,22.624,130.496c0,55.1,43.745,99.977,98.399,101.811c0.103,0.003,0.205,0.009,0.308,0.011
					c1.054,0.033,2.108,0.055,3.169,0.055C125.415,232.372,131.912,232.104,132.768,232.037z"/>
			</g>
			<path id="icon" fill="#FFFFFF" d="M152.923,79.136c0,0-20.752-16.602-29.337-23.47c1.778,0.011,4.535,0.05,4.965,0.072
				c0.032,0.002,0.062,0.005,0.094,0.006c39.425,2.151,70.729,34.798,70.729,74.759c0,39.304-30.285,71.532-68.793,74.627
				c-0.001,0-0.003,0-0.004,0c-0.63,0.05-1.261,0.093-1.896,0.129c-0.045,0.003-0.092,0.005-0.138,0.007
				c-0.582,0.032-1.166,0.055-1.752,0.072c-0.094,0.004-0.187,0.008-0.28,0.012c-0.669,0.017-1.339,0.027-2.012,0.027
				c-0.319,0-0.637-0.012-0.956-0.018c8.561-6.849,29.379-23.503,29.379-23.503s-20.851-18.349-29.422-25.892
				c8.571-7.543,28.941-25.469,28.941-25.469s-20.37-17.926-28.941-25.469C132.072,97.484,152.923,79.136,152.923,79.136z
				 M88.453,155.965c0,0,20.37-17.926,28.942-25.469c-8.572-7.543-28.942-25.469-28.942-25.469s19.921-17.53,28.462-25.047
				c-5.534-4.428-15.948-12.759-22.533-18.027c-26.351,11.593-44.756,37.915-44.756,68.55c0,30.63,18.4,56.949,44.745,68.544
				c6.584-5.268,17.007-13.606,22.544-18.036C108.374,173.495,88.453,155.965,88.453,155.965z M124.5,232.372
				c-1.061,0-2.115-0.021-3.169-0.055c-0.103-0.002-0.205-0.008-0.308-0.011c-54.654-1.834-98.399-46.711-98.399-101.811
				c0-55.106,43.755-99.986,98.418-101.811c0.093-0.004,8.163,0.042,8.97,0.085c0.043,0.002,0.085,0.005,0.128,0.008
				c53.642,2.927,96.236,47.346,96.236,101.718c0,53.479-41.207,97.328-93.602,101.54c-0.002,0-0.004,0-0.007,0.001
				C131.912,232.104,125.415,232.372,124.5,232.372z"/>
		</g>
	</svg>
