<?xml version="1.0" encoding="utf-8"?>
<!DOCTYPE svg PUBLIC "-//W3C//DTD SVG 1.0//EN" "http://www.w3.org/TR/2001/REC-SVG-20010904/DTD/svg10.dtd" [
  <!ENTITY ns_flows "http://ns.adobe.com/Flows/1.0/">
  <!ENTITY ns_svg "http://www.w3.org/2000/svg">
  <!ENTITY ns_xlink "http://www.w3.org/1999/xlink">
]>
<svg xmlns="&ns_svg;" xmlns:xlink="&ns_xlink;"
     xmlns:a="http://ns.adobe.com/AdobeSVGViewerExtensions/3.0/"
     width="256" height="256" viewBox="0 0 256 256" overflow="visible"
     enable-background="new 0 0 256 256" xml:space="preserve">
  <g id="Layer_1">
    <rect id="bounds" fill="#2D2D2D" width="256" height="256"/>
    <path id="icon" fill="#FFFFFF"
        d="M210.084,10.096c0,0-110.481,28.725-120.401,31.304c-0.887-6.206-3.138-21.966-3.138-21.966
        L11.438,38.211l25.347,200.867l15.572,7.679l181.557-53.818l2.011-169.594c0,0-12.986,3.786-18.152,5.292
        c-0.606-5.921-2.049-20.006-2.049-20.006L210.084,10.096z M55.085,236.963L47.211,82.106l178.552-45.384l-1.763,148.724
        L55.085,236.963z M22.47,45.761l55.744-13.936l3.153,22.07L206.961,21.24l1.717,14.285L40.938,77.46l7.804,156.99l-2.709-1.962
        L22.47,45.761z "/>
    <path id="outline" fill="#444444"
        d="M210.084,10.096c0,0-110.481,28.725-120.401,31.304
        c-0.887-6.206-3.138-21.966-3.138-21.966L11.438,38.211l25.347,200.867l15.572,7.679l181.557-53.818l2.011-169.594
        c0,0-12.986,3.786-18.152,5.292c-0.606-5.921-2.049-20.006-2.049-20.006L210.084,10.096z"/>
    <path id="icon2" fill="#FFFFFF"
        transform="translate(68,82) rotate(-1) scale(0.55,0.55) skewY(-15)"
        d="M199.476,104.536h43.365V53.695h-29.13V34.376h-40.672v19.319h-29.13v50.841h33.546
        l-29.791,48.061h-44.392l-29.793-48.061h34.926V53.695H79.276V34.376H38.604v19.319H9.475v50.841h43.364h4.419l29.793,48.061
        H46.519v50.841h63.094l18.251,35.588l20.464-35.588h58.848v-50.841h-43.289l29.792-48.061H199.476z M20.946,92.334V65.897h76.612
        v26.437H20.946z M193.956,191.235H58.721V164.8h135.235V191.235z M154.757,65.897h76.611v26.437h-76.611V65.897z"/>
    <polygon id="outline2" fill="#444444"
        transform="translate(68,82) rotate(-1) scale(0.55,0.55) skewY(-15)"
        points="199.476,104.536 242.841,104.536 242.841,53.695 213.711,53.695 213.711,34.376
        173.039,34.376 173.039,53.695 143.909,53.695 143.909,104.536 177.455,104.536 147.664,152.597 103.272,152.597 73.479,104.536
        108.405,104.536 108.405,53.695 79.276,53.695 79.276,34.376 38.604,34.376 38.604,53.695 9.475,53.695 9.475,104.536
        52.839,104.536 57.258,104.536 87.051,152.597 46.519,152.597 46.519,203.438 109.612,203.438 127.863,239.025 148.327,203.438
        207.175,203.438 207.175,152.597 163.886,152.597 193.678,104.536 "/>
  </g>
</svg>
