<?xml version="1.0" encoding="utf-8"?>
<!-- Generator: Adobe Illustrator 11 Build 196, SVG Export Plug-In . SVG Version: 6.0.0 Build 78)  -->
<!DOCTYPE svg PUBLIC "-//W3C//DTD SVG 1.0//EN"    "http://www.w3.org/TR/2001/REC-SVG-20010904/DTD/svg10.dtd" [
	<!ENTITY ns_flows "http://ns.adobe.com/Flows/1.0/">
	<!ENTITY ns_svg "http://www.w3.org/2000/svg">
	<!ENTITY ns_xlink "http://www.w3.org/1999/xlink">
]>
<svg  xmlns="&ns_svg;" xmlns:xlink="&ns_xlink;" xmlns:a="http://ns.adobe.com/AdobeSVGViewerExtensions/3.0/"
	width="256" height="256" viewBox="0 0 256 256" overflow="visible" enable-background="new 0 0 256 256" xml:space="preserve">
	<g id="Layer_1">
		<path fill="#FFFFFF"
				d="M191.95023 97.819333L140.93363 120.21688L146.32563 64.637802L146.32563 62.149187L136.37118 56.34242
				L118.53609 56.34242L108.16686 62.563956L108.16686 64.637802L113.97364 121.04641L63.371813 97.819333
				L58.394584 96.575023L52.587817 104.87039L46.781051 121.46118L45.121974 129.34179L51.758279 133.90425
				L106.50779 145.93256L68.763812 187.40947L65.860427 193.21624L72.081958 199.85253L86.184113 210.22176
				L93.649954 214.36946L99.456727 209.80699L127.66103 161.69378L155.86532 209.80699L161.25732 214.36946
				L168.72316 210.63653L182.82531 200.2673L189.46162 193.631L186.55824 187.82423L149.22902 145.51779
				L203.56376 133.90425L210.20007 129.34179L208.541 121.87594L203.14899 104.87039L196.92747 96.575023
				L191.95023 97.819333L191.95023 97.819333" />
	</g>
</svg>

