<?xml version="1.0" encoding="utf-8"?>
<!-- Generator: Adobe Illustrator 12.0.1, SVG Export Plug-In . SVG Version: 6.00 Build 51448)  -->
<!DOCTYPE svg PUBLIC "-//W3C//DTD SVG 1.1//EN" "http://www.w3.org/Graphics/SVG/1.1/DTD/svg11.dtd" [
	<!ENTITY ns_svg "http://www.w3.org/2000/svg">
	<!ENTITY ns_xlink "http://www.w3.org/1999/xlink">
]>
<svg  version="1.1" id="Layer_1" xmlns="&ns_svg;" xmlns:xlink="&ns_xlink;" width="256" height="256" viewBox="0 0 256 256"
	 overflow="visible" enable-background="new 0 0 256 256" xml:space="preserve">
<rect id="bounds" fill="#686868" width="256" height="256"/>
<path id="outline" fill="#FFFFFF" d="M128.799,44.667c-50.967,0-92.285,34.044-92.285,76.041c0,24.683,14.277,46.616,36.394,60.508
	c-7.555,17.287-19.746,39.403-34.348,44.66c29.881,2.186,56.529-13.31,71.317-30.729c6.107,1.048,12.436,1.603,18.921,1.603
	c50.969,0,92.285-34.045,92.285-76.042S179.768,44.667,128.799,44.667z"/>
<path id="icon" fill="#FFFFFF" d="M221.084,120.708c0,41.997-41.316,76.042-92.285,76.042c-6.486,0-12.814-0.555-18.921-1.603
	c-14.788,17.419-41.437,32.914-71.317,30.729c14.602-5.257,26.793-27.373,34.348-44.66c-22.116-13.892-36.394-35.825-36.394-60.508
	c0-41.997,41.317-76.041,92.285-76.041C179.768,44.667,221.084,78.711,221.084,120.708z M202.866,119.5
	c0-33.662-32.847-60.951-73.366-60.951S56.133,85.838,56.133,119.5c0,33.661,32.848,60.95,73.367,60.95
	S202.866,153.161,202.866,119.5z"/>
</svg>
