<?xml version="1.0" encoding="UTF-8"?>
<svg width="255" height="85" viewBox="0 0 255 85" version="1.1">
    <g id="Layer_1">
        <path fill="#686868" id="capsule" d="M210.945,84.705c23.391,0,42.353-18.964,42.353-42.353C253.298,18.962,234.336,0,210.945,0H42.352
                C18.962,0,0,18.962,0,42.353c0,23.389,18.962,42.353,42.352,42.353H210.945z"/>
        <path d="M98.5 14.5L154.18 14.5L154.18 70.21L98.5 70.21L98.5 56.27L91.53 56.27L91.53 77.15L161.15 77.15L161.15 7.55L91.53 7.55L91.53 28.44L98.5 28.44L98.5 14.5Z" id="box" fill="#FFFFFF"></path>
        <path d="M69.49 44.68L69.49 40.02L71.8 40.02L111.26 40.02L111.26 26.11L143.75 42.35L111.26 58.6L111.26 44.68L71.8 44.68L69.49 44.68Z" id="arrow" fill="#FFFFFF"></path>

    </g>
</svg>
