<?xml version="1.0" encoding="utf-8"?>
<!-- Generator: Adobe Illustrator 11 Build 196, SVG Export Plug-In . SVG Version: 6.0.0 Build 78)  -->
<!DOCTYPE svg PUBLIC "-//W3C//DTD SVG 1.0//EN"    "http://www.w3.org/TR/2001/REC-SVG-20010904/DTD/svg10.dtd" [
	<!ENTITY ns_flows "http://ns.adobe.com/Flows/1.0/">
	<!ENTITY ns_svg "http://www.w3.org/2000/svg">
	<!ENTITY ns_xlink "http://www.w3.org/1999/xlink">
]>
<svg  xmlns="&ns_svg;" xmlns:xlink="&ns_xlink;" xmlns:a="http://ns.adobe.com/AdobeSVGViewerExtensions/3.0/"
	 width="256" height="256" viewBox="0 0 256 256" overflow="visible" enable-background="new 0 0 256 256" xml:space="preserve">

		<g id="Layer_1">
			<rect id="bounds" fill="#2D2D2D" width="256" height="256"/>
			<g id="outline">
				<path id="outlineFolder" fill="#FFFFFF" d="M210.084,10.096c0,0-110.481,28.725-120.401,31.305
					c-0.888-6.207-3.139-21.967-3.139-21.967L11.437,38.211l25.348,200.867l15.572,7.679l181.557-53.817l2.01-169.595
					c0,0-12.984,3.786-18.15,5.292c-0.607-5.921-2.049-20.006-2.049-20.006L210.084,10.096z"/>
				<polygon id="outlineBolt" fill="#FFFFFF" points="112.01,84.054 163.938,69.629 148.936,126.172 172.592,116.364
					118.934,206.371 132.781,134.25 106.817,142.904 "/>
			</g>
			<g id="icon">
				<path fill="#FFFFFF" opacity="0.15" d="M210.084,10.096c0,0-110.481,28.725-120.401,31.304c-0.887-6.206-3.138-21.966-3.138-21.966
					L11.438,38.211l25.347,200.867l15.572,7.679l181.557-53.817l2.011-169.595c0,0-12.985,3.786-18.151,5.292
					c-0.606-5.921-2.049-20.006-2.049-20.006L210.084,10.096z M55.085,236.963L47.211,82.106l178.553-45.384L224,185.445
					L55.085,236.963z M22.47,45.761l55.744-13.936l3.153,22.07L206.961,21.24l1.717,14.285L40.938,77.46l7.804,156.99l-2.709-1.962
					L22.47,45.761z"/>
				<polygon id="bolt" fill="#FFC800" points="112.01,84.054 163.938,69.629 148.936,126.172 172.592,116.364 118.934,206.371
					132.781,134.25 106.817,142.904 "/>
			</g>
		</g>
	</svg>
