<?xml version="1.0" encoding="utf-8"?>
<!-- Generator: Adobe Illustrator 11 Build 196, SVG Export Plug-In . SVG Version: 6.0.0 Build 78)  -->
<!DOCTYPE svg PUBLIC "-//W3C//DTD SVG 1.0//EN"    "http://www.w3.org/TR/2001/REC-SVG-20010904/DTD/svg10.dtd" [
	<!ENTITY ns_flows "http://ns.adobe.com/Flows/1.0/">
	<!ENTITY ns_svg "http://www.w3.org/2000/svg">
	<!ENTITY ns_xlink "http://www.w3.org/1999/xlink">
]>
<svg  xmlns="&ns_svg;" xmlns:xlink="&ns_xlink;" xmlns:a="http://ns.adobe.com/AdobeSVGViewerExtensions/3.0/"
	 width="256" height="256" viewBox="0 0 256 256" overflow="visible" enable-background="new 0 0 256 256" xml:space="preserve">
	
		<g id="Layer_1">
			<rect id="bounds" fill="#2D2D2D" width="256" height="256"/> 
			<g id="outline">
				<path id="outlineFolder" fill="#FFFFFF" d="M210.084,10.096c0,0-110.481,28.725-120.401,31.305
					c-0.888-6.207-3.139-21.967-3.139-21.967L11.437,38.211l25.348,200.867l15.572,7.679l181.557-53.817l2.01-169.595
					c0,0-12.984,3.786-18.15,5.292c-0.607-5.921-2.049-20.006-2.049-20.006L210.084,10.096z"/>
				<polygon id="outlineBolt" fill="#FFFFFF" points="112.01,84.054 163.938,69.629 148.936,126.172 172.592,116.364 
					118.934,206.371 132.781,134.25 106.817,142.904 "/>
			</g>
			<g id="icon">
				<path fill="#FFC800" d="M210.084,10.096c0,0-110.481,28.725-120.401,31.304c-0.887-6.206-3.138-21.966-3.138-21.966
					L11.438,38.211l25.347,200.867l15.572,7.679l181.557-53.817l2.011-169.595c0,0-12.985,3.786-18.151,5.292
					c-0.606-5.921-2.049-20.006-2.049-20.006L210.084,10.096z M55.085,236.963L47.211,82.106l178.553-45.384L224,185.445
					L55.085,236.963z M22.47,45.761l55.744-13.936l3.153,22.07L206.961,21.24l1.717,14.285L40.938,77.46l7.804,156.99l-2.709-1.962
					L22.47,45.761z"/>
				<polygon id="bolt" fill="#FFC800" points="112.01,84.054 163.938,69.629 148.936,126.172 172.592,116.364 118.934,206.371 
					132.781,134.25 106.817,142.904 "/>
				<path id="asterisk" fill="#d9d9d9"
					  d="M215.16427 66.313683L200.03531 72.955674L201.6343 56.473704L201.6343 55.735707L198.6823 54.013714
						 L193.39333 54.013714L190.31833 55.858706L190.31833 56.473704L192.04032 73.201675L177.03436 66.313683
						 L175.55836 65.944693L173.83636 68.404676L172.11437 73.324675L171.62237 75.661669L173.59036 77.014661
						 L189.82633 80.581657L178.63335 92.88163L177.77236 94.60362L179.61735 96.57162L183.79934 99.64662
						 L186.01333 100.87661L187.73534 99.52362L196.09931 85.255645L204.46329 99.52362L206.0623 100.87661
						 L208.27628 99.76962L212.45828 96.69462L214.42627 94.72662L213.56527 93.00463L202.4953 80.458657
						 L218.60826 77.014661L220.57626 75.661669L220.08426 73.447664L218.48526 68.404676L216.64026 65.944693
						 L215.16427 66.313683L215.16427 66.313683" />
			</g>
		</g>
	</svg>
