<?xml version="1.0" encoding="utf-8"?>
<!-- Generator: Adobe Illustrator 12.0.1, SVG Export Plug-In . SVG Version: 6.00 Build 51448)  -->
<!DOCTYPE svg PUBLIC "-//W3C//DTD SVG 1.1//EN" "http://www.w3.org/Graphics/SVG/1.1/DTD/svg11.dtd" [
	<!ENTITY ns_svg "http://www.w3.org/2000/svg">
	<!ENTITY ns_xlink "http://www.w3.org/1999/xlink">
]>
<svg  version="1.1" id="Layer_1" xmlns="&ns_svg;" xmlns:xlink="&ns_xlink;" width="203.469" height="203.468"
	 viewBox="0 0 203.469 203.468" overflow="visible" enable-background="new 0 0 203.469 203.468" xml:space="preserve">
<path id="outline_selected" fill="#474747" d="M53.57,56.369c0,0,9.124-8.89,15.482-11.009
	s18.534-0.767,24.432,0.413c12.363,2.473,19.426,1.767,23.666,1.06s7.771-3.179,7.771-3.179l4.238-3.532l1.766-2.119l3.18-1.413
	l2.473-0.707V32.35l2.825-1.413l0.354-2.119l4.238-1.413l3.179-1.413l1.061-4.238l-2.473-3.532l1.06-7.417l3.885,3.885
	c0,0,5.651,3.532,7.064,3.885s2.826,0.354,2.826,0.354s-0.001-1.413,0.706-3.179s3.886-1.059,4.945-0.353s2.473,2.826,2.473,2.826
	l0.354,2.826l3.532-1.06l1.766,1.766l3.179,3.532l2.826,3.532c0,0,1.767,4.592,3.886,7.417s9.184,10.95,11.656,13.422
	s4.945,7.417,3.886,11.303s-1.767,4.238-3.532,4.592s-0.706,1.414-3.532,2.12s-4.238-0.354-5.298-0.707s-4.239-3.179-6.358-4.238
	s-4.945-1.413-7.064-2.473s-4.238-3.885-5.651-4.238s-0.707-2.827-3.886-1.061s-3.532,0.354-5.651,6.712s-3.532,5.297-6.005,8.477
	s-8.124,6.359-9.184,10.244s-3.179,10.242-4.592,13.068s-5.298,5.299-5.298,5.299s6.005,3.885,9.184,6.711s5.65,4.592,6.357,9.537
	s-3.18,10.243-4.592,14.835s-3.532,13.069-3.532,16.602s-2.473,15.895-2.473,15.895s0.354,4.945-0.706,6.005
	s-4.592,6.711-4.592,6.711s-3.886-2.473-4.592-5.651s0.706-8.124,0.706-8.124s1.061-4.592,0.707-7.064s-1.413-4.944-1.413-4.944
	s4.592-7.771,6.005-12.363s3.18-11.656,2.473-15.188s-6.005-12.01-14.482-13.069c-3.532,4.945-7.771,9.537-7.771,9.537
	s-4.592,6.711-5.651,10.243s-3.18,11.303-5.299,15.188s-4.945,6.358-7.064,14.482s-6.357,15.188-3.532,18.721
	s5.297,6.712,6.71,9.537s3.533,2.825,0.707,3.885s-8.478-1.06-10.597-0.706s-2.119-1.414-2.119-2.826s0.706-2.826-1.06-4.592
	s-3.532-3.531-4.238-6.357s1.06-6.712,1.766-8.478s5.651-14.835,6.358-18.721s0-9.538,1.766-12.01s9.185-19.428,9.537-20.84
	s2.119-15.54,2.119-16.601c-3.532,0.353-7.418-2.473-9.537-1.767s-5.298,0.354-5.298,0.354s-7.064,9.185-9.537,10.597
	s-14.129,6.004-16.249,8.477s-5.652,6.712-6.358,10.244s-1.766,10.243-2.119,14.835s1.766,19.78,2.119,22.253
	s2.826,7.771,2.826,10.597s6.004,5.65,5.298,7.771s-3.885,3.532-5.651,2.826s-3.18-2.119-4.592-3.179s-2.472-2.12-4.238-2.826
	s-3.179-3.885-2.473-7.417s-0.707-15.189-0.707-17.309s-2.826-14.481-3.532-15.895c-0.353,6.711-1.413,22.959-1.766,25.785
	s-0.707,3.531-1.06,5.298s0,5.651,0,7.418s-0.353,2.826-2.119,4.945s-3.886,3.179-4.945,4.238s-3.179,2.827-3.532,0.707
	s-2.826-7.418-2.826-7.418s1.766-2.473,2.119-3.886s-1.06-4.592-1.06-4.592s0-5.298,1.06-7.771s3.886-17.661,3.886-20.134
	s1.413-21.546,1.766-27.551s2.119-7.771,8.124-9.184s8.831-3.532,8.831-3.532c0.706-3.532,1.413-4.238,1.413-6.005
	s-0.353-4.592-1.413-6.005s-2.826-5.298-4.239-8.124s-2.472-5.651-2.826-9.184s0-8.478,1.766-10.597
	c-4.945-0.706-7.064-1.413-8.124-1.413s-3.532-1.413-3.532-1.413s-6.357-3.886-10.95,1.413s-7.064,9.537-8.831,11.656
	s-2.826,2.825-4.592,3.532s0.706-2.825,0.706-2.825s-1.766-2.119-2.826-1.413s0.707-3.532,0.707-3.532s-0.707,0-2.826,1.06
	s-1.767-2.12,0.353-2.826s4.945-4.592,4.945-4.592l-1.766-0.706c0,0,2.12-2.826,4.239-3.886s5.652-3.885,4.592-3.179
	s-2.826-1.413-2.826-1.413l-0.354-1.766c0,0,5.651-3.885,18.014-2.472S49.685,57.075,53.57,56.369z"/>
<rect fill="#474747" width="203.469" height="203.468"/>

<path id="outline" fill="#474747" d="M53.57,56.369c0,0,9.124-8.89,15.482-11.009s18.534-0.767,24.432,0.413
	c12.363,2.473,19.426,1.767,23.666,1.06s7.771-3.179,7.771-3.179l4.238-3.532l1.766-2.119l3.18-1.413l2.473-0.707V32.35l2.825-1.413
	l0.354-2.119l4.238-1.413l3.179-1.413l1.061-4.238l-2.473-3.532l1.06-7.417l3.885,3.885c0,0,5.651,3.532,7.064,3.885
	s2.826,0.354,2.826,0.354s-0.001-1.413,0.706-3.179s3.886-1.059,4.945-0.353s2.473,2.826,2.473,2.826l0.354,2.826l3.532-1.06
	l1.766,1.766l3.179,3.532l2.826,3.532c0,0,1.767,4.592,3.886,7.417s9.184,10.95,11.656,13.422s4.945,7.417,3.886,11.303
	s-1.767,4.238-3.532,4.592s-0.706,1.414-3.532,2.12s-4.238-0.354-5.298-0.707s-4.239-3.179-6.358-4.238s-4.945-1.413-7.064-2.473
	s-4.238-3.885-5.651-4.238s-0.707-2.827-3.886-1.061s-3.532,0.354-5.651,6.712s-3.532,5.297-6.005,8.477s-8.124,6.359-9.184,10.244
	s-3.179,10.242-4.592,13.068s-5.298,5.299-5.298,5.299s6.005,3.885,9.184,6.711s5.65,4.592,6.357,9.537s-3.18,10.243-4.592,14.835
	s-3.532,13.069-3.532,16.602s-2.473,15.895-2.473,15.895s0.354,4.945-0.706,6.005s-4.592,6.711-4.592,6.711
	s-3.886-2.473-4.592-5.651s0.706-8.124,0.706-8.124s1.061-4.592,0.707-7.064s-1.413-4.944-1.413-4.944s4.592-7.771,6.005-12.363
	s3.18-11.656,2.473-15.188s-6.005-12.01-14.482-13.069c-3.532,4.945-7.771,9.537-7.771,9.537s-4.592,6.711-5.651,10.243
	s-3.18,11.303-5.299,15.188s-4.945,6.358-7.064,14.482s-6.357,15.188-3.532,18.721s5.297,6.712,6.71,9.537s3.533,2.825,0.707,3.885
	s-8.478-1.06-10.597-0.706s-2.119-1.414-2.119-2.826s0.706-2.826-1.06-4.592s-3.532-3.531-4.238-6.357s1.06-6.712,1.766-8.478
	s5.651-14.835,6.358-18.721s0-9.538,1.766-12.01s9.185-19.428,9.537-20.84s2.119-15.54,2.119-16.601
	c-3.532,0.353-7.418-2.473-9.537-1.767s-5.298,0.354-5.298,0.354s-7.064,9.185-9.537,10.597s-14.129,6.004-16.249,8.477
	s-5.652,6.712-6.358,10.244s-1.766,10.243-2.119,14.835s1.766,19.78,2.119,22.253s2.826,7.771,2.826,10.597s6.004,5.65,5.298,7.771
	s-3.885,3.532-5.651,2.826s-3.18-2.119-4.592-3.179s-2.472-2.12-4.238-2.826s-3.179-3.885-2.473-7.417s-0.707-15.189-0.707-17.309
	s-2.826-14.481-3.532-15.895c-0.353,6.711-1.413,22.959-1.766,25.785s-0.707,3.531-1.06,5.298s0,5.651,0,7.418
	s-0.353,2.826-2.119,4.945s-3.886,3.179-4.945,4.238s-3.179,2.827-3.532,0.707s-2.826-7.418-2.826-7.418s1.766-2.473,2.119-3.886
	s-1.06-4.592-1.06-4.592s0-5.298,1.06-7.771s3.886-17.661,3.886-20.134s1.413-21.546,1.766-27.551s2.119-7.771,8.124-9.184
	s8.831-3.532,8.831-3.532c0.706-3.532,1.413-4.238,1.413-6.005s-0.353-4.592-1.413-6.005s-2.826-5.298-4.239-8.124
	s-2.472-5.651-2.826-9.184s0-8.478,1.766-10.597c-4.945-0.706-7.064-1.413-8.124-1.413s-3.532-1.413-3.532-1.413
	s-6.357-3.886-10.95,1.413s-7.064,9.537-8.831,11.656s-2.826,2.825-4.592,3.532s0.706-2.825,0.706-2.825s-1.766-2.119-2.826-1.413
	s0.707-3.532,0.707-3.532s-0.707,0-2.826,1.06s-1.767-2.12,0.353-2.826s4.945-4.592,4.945-4.592l-1.766-0.706
	c0,0,2.12-2.826,4.239-3.886s5.652-3.885,4.592-3.179s-2.826-1.413-2.826-1.413l-0.354-1.766c0,0,5.651-3.885,18.014-2.472
	S49.685,57.075,53.57,56.369z"/>
</svg>
