/* XPM */
static char * collapsenode_xpm[] = {
"32 32 140 2",
"  	c None",
". 	c #2D2D2D",
"+ 	c #343434",
"@ 	c #3A3A3A",
"# 	c #3B3B3B",
"$ 	c #383838",
"% 	c #303030",
"& 	c #2F2F2F",
"* 	c #111111",
"= 	c #040404",
"- 	c #010101",
"; 	c #020202",
"> 	c #0A0A0A",
", 	c #282828",
"' 	c #2C2C2C",
") 	c #373737",
"! 	c #000000",
"~ 	c #5E5E5E",
"{ 	c #828282",
"] 	c #7C7C7C",
"^ 	c #7D7D7D",
"/ 	c #818181",
"( 	c #1C1C1C",
"_ 	c #1B1B1B",
": 	c #393939",
"< 	c #A4A4A4",
"[ 	c #E1E1E1",
"} 	c #D7D7D7",
"| 	c #D8D8D8",
"1 	c #DFDFDF",
"2 	c #333333",
"3 	c #171717",
"4 	c #9B9B9B",
"5 	c #D6D6D6",
"6 	c #CDCDCD",
"7 	c #CECECE",
"8 	c #D3D3D3",
"9 	c #181818",
"0 	c #CACACA",
"a 	c #C7C7C7",
"b 	c #C8C8C8",
"c 	c #969696",
"d 	c #404040",
"e 	c #505050",
"f 	c #4C4C4C",
"g 	c #555555",
"h 	c #313131",
"i 	c #A7A7A7",
"j 	c #767676",
"k 	c #696969",
"l 	c #C4C4C4",
"m 	c #C3C3C3",
"n 	c #AFAFAF",
"o 	c #D4D4D4",
"p 	c #A3A3A3",
"q 	c #9F9F9F",
"r 	c #494949",
"s 	c #4E4E4E",
"t 	c #646464",
"u 	c #D9D9D9",
"v 	c #D1D1D1",
"w 	c #D5D5D5",
"x 	c #E0E0E0",
"y 	c #DEDEDE",
"z 	c #3C3C3C",
"A 	c #545454",
"B 	c #535353",
"C 	c #525252",
"D 	c #4D4D4D",
"E 	c #101010",
"F 	c #0D0D0D",
"G 	c #1D1D1D",
"H 	c #1F1F1F",
"I 	c #050505",
"J 	c #070707",
"K 	c #363636",
"L 	c #3E3E3E",
"M 	c #484848",
"N 	c #0B0B0B",
"O 	c #565656",
"P 	c #787878",
"Q 	c #7B7B7B",
"R 	c #6A6A6A",
"S 	c #161616",
"T 	c #0F0F0F",
"U 	c #444444",
"V 	c #3D3D3D",
"W 	c #2E2E2E",
"X 	c #727272",
"Y 	c #747474",
"Z 	c #797979",
"` 	c #676767",
" .	c #131313",
"..	c #0E0E0E",
"+.	c #353535",
"@.	c #232323",
"#.	c #090909",
"$.	c #626262",
"%.	c #242424",
"&.	c #141414",
"*.	c #030303",
"=.	c #2A2A2A",
"-.	c #5F5F5F",
";.	c #292929",
">.	c #323232",
",.	c #686868",
"'.	c #424242",
").	c #454545",
"!.	c #606060",
"~.	c #1A1A1A",
"{.	c #191919",
"].	c #2B2B2B",
"^.	c #0C0C0C",
"/.	c #252525",
"(.	c #212121",
"_.	c #222222",
":.	c #757575",
"<.	c #3F3F3F",
"[.	c #434343",
"}.	c #6F6F6F",
"|.	c #707070",
"1.	c #7A7A7A",
"2.	c #151515",
"3.	c #060606",
"4.	c #949494",
"5.	c #4F4F4F",
"6.	c #8B8B8B",
"7.	c #272727",
"8.	c #414141",
"9.	c #919191",
"0.	c #999999",
"a.	c #858585",
"b.	c #8E8E8E",
"c.	c #121212",
"d.	c #1E1E1E",
"e.	c #262626",
"f.	c #959595",
"g.	c #777777",
"h.	c #515151",
"i.	c #464646",
"                                                                ",
"  . + @ @ @ @ @ @ @ @ @ @ @ # $ % . . . . . . . . . . . . . .   ",
"  & $ * = - ; ; ; ; ; ; ; ; > , $ ' . . . . . . . . . . . . .   ",
"  % ) ! ~ { ] ] ] ] ] ] ^ / ( _ : ' . . . . . . . . . . . . .   ",
"  % ) ! < [ } } } } } } | 1 2 3 : ' . . . . . . . . . . . . .   ",
"  % ) ! 4 5 6 6 6 6 6 6 7 8 % 9 : ' . . . . . . . . . . . . .   ",
"  % ) ! 4 5 0 a a a a b 7 8 % 9 : ' . . . . . . . . . . . . .   ",
"  % ) ! < c d e e e e f g 5 h 9 : ' . . . . . . . . . . . . .   ",
"  % ) ! i j k l m m l n ) o h 9 : ' . . . . . . . . . . . . .   ",
"  % ) ! p q r e e e e s t 5 h 9 : ' . . . . . . . . . . . . .   ",
"  % ) ! 4 u 8 v v v v v 8 8 % 9 : ' . . . . . . . . . . . . .   ",
"  % ) ! 4 w 6 6 6 6 6 6 6 8 % 9 : ' . . . . . . . . . . . . .   ",
"  % ) ! p x } } } } } } | y 2 3 : ' . . . . . . . . . . . . .   ",
"  % $ ! z A B C s D D e A A E ( : ' . . . . . . . . . . . . .   ",
"  & $ ( E F ! ! _ G H I ! J 9 . K ' . . . . . . . . . . . . .   ",
"  . h L M H N O ] P Q R S T U V . ' . % W W % W W % W W % W .   ",
"  . h # S ! h ~ X Y Y Z `  ...# K +.$ $ $ $ $ $ $ $ $ $ $ ) &   ",
"  . @ @.#.> I ! $.P X %.&.> ! F $ h +.= W z *.. z = W z *.=.+.  ",
"  . 2 $ @ V + *.-.Z k ; _ ;., , , - K >.) @ +.# : % ) # K : %   ",
"  . . . W 2 +.= -.Z ,.*.+.r '.U ).: # + & K ) K + >.% $ + ) h   ",
"  . . . . h 2 = !.P Y ~.I 9 9 3 {., : . ].# ^.~.: ].. @ I /.K   ",
"  . . ' . % ) - O Z j ` 2 (.(._.{.! +.K h K : : + 2 h K : : %   ",
"  . & W & W @ ^./.Q :.j Z P P Z j B <.h 2 z >.: z . + z 2 $ h   ",
"  . # t V [.}.@ ! 2 |.Q 1.1.1.] Y U '.2.H U ! G U 3._.).I /.K   ",
"  ' '.4.5.6.Y <.W = ^.' + 2 2 +.7.! $ # $ : ) : : : $ : : : %   ",
"  ' 8.9.0.^ >.W $ @ %.* F F F F ../.z & . +.K ) 2 W W ) 2 $ h   ",
"  ' d 0.a.b.[.. . % $ # # # # L 8.h : W ' @ c.d.$ ].. @ 3.e.K   ",
"  ' '.f.U g.6.@ . . ' . . . . >.>.! @ V 2 L [.V z : 2 d # # %   ",
"  . L :.8.z ^ h.. . . . . . . W ) $ 9 {.i.~.{.i.~.{.i._ 2.) >.  ",
"  . % >.% & h 2 W . . . . . . . & z 7./.'.e./.8.e./.'., H >.2   ",
"  . . ' . . ' ' . . . . . . . . . W ) ) % ) ) % ) ) % K : 2 .   ",
"                                                                "};
