/* XPM */
static char * expandRecursive_xpm[] = {
"32 32 183 2",
"  	c None",
". 	c #363636",
"+ 	c #393939",
"@ 	c #3A3A3A",
"# 	c #383838",
"$ 	c #303030",
"% 	c #2D2D2D",
"& 	c #353535",
"* 	c #080808",
"= 	c #000000",
"- 	c #040404",
"; 	c #282828",
"> 	c #373737",
", 	c #2C2C2C",
"' 	c #333333",
") 	c #030303",
"! 	c #7D7D7D",
"~ 	c #9B9B9B",
"{ 	c #969696",
"] 	c #979797",
"^ 	c #989898",
"/ 	c #1C1C1C",
"( 	c #202020",
"_ 	c #2E2E2E",
": 	c #050505",
"< 	c #B2B2B2",
"[ 	c #DCDCDC",
"} 	c #E2E2E2",
"| 	c #E3E3E3",
"1 	c #E4E4E4",
"2 	c #2B2B2B",
"3 	c #404040",
"4 	c #AAAAAA",
"5 	c #D9D9D9",
"6 	c #616161",
"7 	c #5E5E5E",
"8 	c #5F5F5F",
"9 	c #606060",
"0 	c #0C0C0C",
"a 	c #070707",
"b 	c #262626",
"c 	c #DFDFDF",
"d 	c #555555",
"e 	c #919191",
"f 	c #8A8A8A",
"g 	c #8B8B8B",
"h 	c #8E8E8E",
"i 	c #8C8C8C",
"j 	c #1F1F1F",
"k 	c #1B1B1B",
"l 	c #3B3B3B",
"m 	c #DEDEDE",
"n 	c #5B5B5B",
"o 	c #E1E1E1",
"p 	c #EAEAEA",
"q 	c #171717",
"r 	c #414141",
"s 	c #909090",
"t 	c #DBDBDB",
"u 	c #999999",
"v 	c #646464",
"w 	c #656565",
"x 	c #686868",
"y 	c #131313",
"z 	c #272727",
"A 	c #DDDDDD",
"B 	c #585858",
"C 	c #959595",
"D 	c #575757",
"E 	c #8D8D8D",
"F 	c #898989",
"G 	c #E0E0E0",
"H 	c #D7D7D7",
"I 	c #D1D1D1",
"J 	c #A2A2A2",
"K 	c #9A9A9A",
"L 	c #C1C1C1",
"M 	c #323232",
"N 	c #D6D6D6",
"O 	c #D3D3D3",
"P 	c #AFAFAF",
"Q 	c #313131",
"R 	c #4A4A4A",
"S 	c #6D6D6D",
"T 	c #CFCFCF",
"U 	c #181818",
"V 	c #B1B1B1",
"W 	c #E6E6E6",
"X 	c #5C5C5C",
"Y 	c #949494",
"Z 	c #595959",
"` 	c #C9C9C9",
" .	c #666666",
"..	c #5D5D5D",
"+.	c #CDCDCD",
"@.	c #343434",
"#.	c #434343",
"$.	c #9D9D9D",
"%.	c #9E9E9E",
"&.	c #4E4E4E",
"*.	c #7F7F7F",
"=.	c #C4C4C4",
"-.	c #515151",
";.	c #4F4F4F",
">.	c #0F0F0F",
",.	c #A1A1A1",
"'.	c #767676",
").	c #676767",
"!.	c #C2C2C2",
"~.	c #F4F4F4",
"{.	c #C8C8C8",
"].	c #ABABAB",
"^.	c #D4D4D4",
"/.	c #3D3D3D",
"(.	c #3C3C3C",
"_.	c #020202",
":.	c #A8A8A8",
"<.	c #E8E8E8",
"[.	c #5A5A5A",
"}.	c #9F9F9F",
"|.	c #A3A3A3",
"1.	c #545454",
"2.	c #474747",
"3.	c #B6B6B6",
"4.	c #2F2F2F",
"5.	c #D8D8D8",
"6.	c #DADADA",
"7.	c #ACACAC",
"8.	c #D5D5D5",
"9.	c #1D1D1D",
"0.	c #121212",
"a.	c #0A0A0A",
"b.	c #B4B4B4",
"c.	c #797979",
"d.	c #3E3E3E",
"e.	c #010101",
"f.	c #C7C7C7",
"g.	c #C3C3C3",
"h.	c #D2D2D2",
"i.	c #232323",
"j.	c #4D4D4D",
"k.	c #4B4B4B",
"l.	c #4C4C4C",
"m.	c #0E0E0E",
"n.	c #212121",
"o.	c #111111",
"p.	c #090909",
"q.	c #252525",
"r.	c #060606",
"s.	c #494949",
"t.	c #808080",
"u.	c #161616",
"v.	c #464646",
"w.	c #424242",
"x.	c #292929",
"y.	c #7A7A7A",
"z.	c #787878",
"A.	c #505050",
"B.	c #444444",
"C.	c #6F6F6F",
"D.	c #737373",
"E.	c #777777",
"F.	c #636363",
"G.	c #535353",
"H.	c #757575",
"I.	c #7B7B7B",
"J.	c #939393",
"K.	c #747474",
"L.	c #3F3F3F",
"M.	c #8F8F8F",
"N.	c #7E7E7E",
"O.	c #1A1A1A",
"P.	c #6E6E6E",
"Q.	c #727272",
"R.	c #717171",
"S.	c #848484",
"T.	c #454545",
"U.	c #101010",
"V.	c #707070",
"W.	c #1E1E1E",
"X.	c #484848",
"Y.	c #191919",
"Z.	c #151515",
"                                                                ",
"  . + + + + + + + + + + + @ # $ % % % % % % % % % % % % % % %   ",
"  & * = = = = = = = = = = - ; > , % % % % % % % % % % % % % %   ",
"  ' ) ! ~ { { { { { { ] ^ / ( @ _ _ % % % % % % % % % % % % %   ",
"  ' : < [ [ } } } } } | 1 2 / 3 @ # $ % % % % % % % % % % % %   ",
"  ' : 4 5 { 6 7 8 8 8 9 6 0 = = a b # , % % % % % % % % % % %   ",
"  ' : 4 c d 7 e f f f g h i g h j k l _ _ % % % % % % % % % %   ",
"  ' : 4 m n ] m [ } } } o } 1 p . q r @ # $ % % % % % % % % %   ",
"  ' : 4 m n s t u 6 7 8 6 v w x y = = a z # , % % % % % % % %   ",
"  ' : 4 A B C o D 7 e f f E h F F g h j k + , % % % % % % % %   ",
"  ' : 4 A B C G n ] c H I J K L 5 H m M q + , % % % % % % % %   ",
"  ' : 4 A B C G n s N O P Q R S t T O $ U + , % % % % % % % %   ",
"  ' : V W X Y c Z Y O ` ~  .V ..+.` O $ U + , % % % % % % % %   ",
"  @.= M #./ $.m B %.e 3 &.*.=.#.-.;.N Q U + , % % % % % % % %   ",
"  > j q >.= J m B ,.'.).!.o ~.{.].> ^.Q U + , % % % % % % % %   ",
"  M + /.(._.:.<.[.}.|.1.2.).3.4.B S N Q U + , % % % % % % % %   ",
"  % , 4.. = + -.( %.5.6.7.v :.x o 8.O $ U + , _ Q _ % % % % %   ",
"  % % 4.> 9.0.a.= ,.^.I b.M @ c.5.+.O $ U + , @.> @ _ % % % %   ",
"  % % % M @ d.(.e.:.c H 8.f.g.h.H H m M U + , @ / i.d._ % % %   ",
"  % % % % , $ > = + j.j.R R R &.k.R l.m./ + , @ k = b d._ % %   ",
"  % % % % % 4.> 9.0.m.= >.i.n.= ) o.>.U $ # 4././ p.e.q.d._ %   ",
"  % % , % % , Q @ (.#.r.s.t.! / u.v.#.w.3 # > /.y x.l.= q.d._   ",
"  % 4._ 4._ _ $ % % l a r y.z.A.: e._.e.e._._.) = x.t.v.= q.d.  ",
"  % l ).d.B.C.r % , l y n.y.D.E.F.-.G.1.d D D Z n w H.I.v.) b   ",
"  , r J.A.g K.& % , & $ = d ! H.z.y.y.y.y.c.c.c.c.E.D.K.*.x.=   ",
"  , L.M.K N.M % % % _ (.O.r.k.P.Q.R.R.R.R.R.R.R.R.R.D.I.l.) b   ",
"  , d.{ S.M.T.% % % % $ /.j _.p.U.U.U.U.U.U.U.U.U.q V.d = n.d.  ",
"  , r J.B.K.E l % % % % $ l # 2 q.q.q.q.q.q.q.z W.: X.: 9.d.4.  ",
"  % /.'.r l ! G.% % % % % % Q & . . . . . . . l + - = Y.d.$ %   ",
"  % $ M $ 4.Q ' _ % % % % % % , , , , , , , , $ . = Z.d.$ % %   ",
"  % % , % % , , % % % % % % % % % % % % % % % $ & U /.M % % %   ",
"                                                                "};
