/* XPM */
static char * expandnode_xpm[] = {
"32 32 152 2",
"  	c None",
". 	c #2D2D2D",
"+ 	c #2C2C2C",
"@ 	c #323232",
"# 	c #3A3A3A",
"$ 	c #3B3B3B",
"% 	c #353535",
"& 	c #2E2E2E",
"* 	c #303030",
"= 	c #373737",
"- 	c #1C1C1C",
"; 	c #111111",
"> 	c #0F0F0F",
", 	c #191919",
"' 	c #313131",
") 	c #343434",
"! 	c #000000",
"~ 	c #3D3D3D",
"{ 	c #4C4C4C",
"] 	c #4A4A4A",
"^ 	c #4B4B4B",
"/ 	c #494949",
"( 	c #0A0A0A",
"_ 	c #232323",
": 	c #333333",
"< 	c #050505",
"[ 	c #B3B3B3",
"} 	c #DEDEDE",
"| 	c #D7D7D7",
"1 	c #D6D6D6",
"2 	c #CCCCCC",
"3 	c #CACACA",
"4 	c #D5D5D5",
"5 	c #D8D8D8",
"6 	c #252525",
"7 	c #202020",
"8 	c #AAAAAA",
"9 	c #D3D3D3",
"0 	c #A9A9A9",
"a 	c #393939",
"b 	c #8D8D8D",
"c 	c #CECECE",
"d 	c #CBCBCB",
"e 	c #D9D9D9",
"f 	c #9D9D9D",
"g 	c #717171",
"h 	c #919191",
"i 	c #7B7B7B",
"j 	c #E2E2E2",
"k 	c #B1B1B1",
"l 	c #5B5B5B",
"m 	c #414141",
"n 	c #787878",
"o 	c #A0A0A0",
"p 	c #5D5D5D",
"q 	c #808080",
"r 	c #D0D0D0",
"s 	c #242424",
"t 	c #B7B7B7",
"u 	c #636363",
"v 	c #747474",
"w 	c #BFBFBF",
"x 	c #E3E3E3",
"y 	c #EEEEEE",
"z 	c #C1C1C1",
"A 	c #989898",
"B 	c #404040",
"C 	c #D2D2D2",
"D 	c #B5B5B5",
"E 	c #7C7C7C",
"F 	c #424242",
"G 	c #515151",
"H 	c #999999",
"I 	c #BABABA",
"J 	c #4D4D4D",
"K 	c #4E4E4E",
"L 	c #565656",
"M 	c #ABABAB",
"N 	c #CFCFCF",
"O 	c #C3C3C3",
"P 	c #858585",
"Q 	c #7A7A7A",
"R 	c #9F9F9F",
"S 	c #676767",
"T 	c #C5C5C5",
"U 	c #C7C7C7",
"V 	c #D4D4D4",
"W 	c #454545",
"X 	c #7E7E7E",
"Y 	c #DBDBDB",
"Z 	c #2F2F2F",
"` 	c #9B9B9B",
" .	c #DADADA",
"..	c #020202",
"+.	c #6D6D6D",
"@.	c #878787",
"#.	c #848484",
"$.	c #868686",
"%.	c #8B8B8B",
"&.	c #828282",
"*.	c #151515",
"=.	c #222222",
"-.	c #141414",
";.	c #363636",
">.	c #0C0C0C",
",.	c #030303",
"'.	c #010101",
").	c #070707",
"!.	c #080808",
"~.	c #090909",
"{.	c #2B2B2B",
"].	c #121212",
"^.	c #3E3E3E",
"/.	c #1E1E1E",
"(.	c #161616",
"_.	c #727272",
":.	c #767676",
"<.	c #3C3C3C",
"[.	c #040404",
"}.	c #060606",
"|.	c #1F1F1F",
"1.	c #181818",
"2.	c #585858",
"3.	c #0D0D0D",
"4.	c #212121",
"5.	c #757575",
"6.	c #6C6C6C",
"7.	c #6E6E6E",
"8.	c #666666",
"9.	c #656565",
"0.	c #777777",
"a.	c #505050",
"b.	c #525252",
"c.	c #545454",
"d.	c #555555",
"e.	c #575757",
"f.	c #131313",
"g.	c #2A2A2A",
"h.	c #797979",
"i.	c #383838",
"j.	c #686868",
"k.	c #737373",
"l.	c #101010",
"m.	c #434343",
"n.	c #939393",
"o.	c #8F8F8F",
"p.	c #838383",
"q.	c #959595",
"r.	c #909090",
"s.	c #464646",
"t.	c #1B1B1B",
"u.	c #949494",
"                                                                ",
"  . . . . . + + + + + + + + + + + . . . . . . . . . . . . . .   ",
"  . . . @ # # # # # # # # # # # $ % & . . . . . . . . . . . .   ",
"  . . * = - ; > > > > > > > > > , ' ) . . . . . . . . . . . .   ",
"  . . ' ) ! ~ { ] ] { { ^ ] ] / ( _ = + . . . . . . . . . . .   ",
"  . . ' : < [ } | 1 2 3 4 | 5 4 6 7 = + . . . . . . . . . . .   ",
"  . . ' : < 8 9 9 0 ) a b 1 c d _ 7 = + . . . . . . . . . . .   ",
"  . . ' : < 0 e } f g h i j 1 d _ 7 = + . . . . . . . . . . .   ",
"  . . ' : < k f l m n o : p q r s 7 = + . . . . . . . . . . .   ",
"  . . ' : < t u v w x y z A B C s 7 = + . . . . . . . . . . .   ",
"  . . ' : < D E F G H I J K L C s 7 = + . . . . . . . . . . .   ",
"  . . ' : < M N O P Q R S T U 2 _ 7 = + . . . . . . . . . . .   ",
"  . . ' : < 8 V 1 R % W X Y r d _ 7 = + . * Z . . . . . . . .   ",
"  . . ' : < [ } e c ` A T  .e 1 6 7 = + * = # @ . . . . . . .   ",
"  . . ' ) ..+.@.#.$.%.%.$.#.#.&.*.=.= + : * -.~ @ . . . . . .   ",
"  . . ' ;.>.,.'.! ! ).!.! ! ! '.~.{.;.+ : ' ! ].^.@ . . . . .   ",
"  . . . % # # m /.(._.:.^.).F <.<.a ' & ;.@ [.}.].^.@ . . . .   ",
"  . . . . & . # |.1.n i ] ! # ~ # # a a ~ . !.2.3.; ^.@ . . .   ",
"  . . . . . + = 4.-.5.:.6.(.'.[.,.,.......! < 7.8.>.; ^.@ . .   ",
"  . . . . . + ) & ,.9.0.:.+.G J a.a.b.c.d.e.l g Q u > f.$ ' .   ",
"  . . . . . . & <.).g.i 0.:.h.Q Q Q h.h.h.h.n v _.X d.! =.i.+   ",
"  . . + . . + + ;.' ! * j.k.k._._._._._._._._.k.n 6.(.l.# ' .   ",
"  . Z . & & . * & # Z ).< ; f.].].].].].].].-.J :.1.~.<.: . .   ",
"  . a u B m 6.m.. . = $ & s _ _ _ _ _ _ _ 6 ,.;.6 }.# % + . .   ",
"  + ^.n.b.@.Q = . . . Z ) = = = = = = = = m.f.,.< i.;.+ . . .   ",
"  + ~ o.A p.) . . . . . + + + + + + + + + $ f.,.% i.. . . . .   ",
"  + <.q.$.r.s.. . . . . . . . . . . . . . # t.Z a . . . . . .   ",
"  + ~ u./ g o.<.& . . . . . . . . . . . . : a i.. . . . . . .   ",
"  . $ 5.W a E L & . . . . . . . . . . . . & * . . . . . . . .   ",
"  . * @ ' Z ' : & . . . . . . . . . . . . . . . . . . . . . .   ",
"  . . + . . + + . . . . . . . . . . . . . . . . . . . . . . .   ",
"                                                                "};
