/* XPM */
static char * loadPlugin_xpm[] = {
"32 32 161 2",
"  	c None",
". 	c #2D2D2D",
"+ 	c #2F2F2F",
"@ 	c #303030",
"# 	c #2E2E2E",
"$ 	c #343434",
"% 	c #3B3B3B",
"& 	c #333333",
"* 	c #3C3C3C",
"= 	c #434343",
"- 	c #2B2B2B",
"; 	c #0A0A0A",
"> 	c #323232",
", 	c #393939",
"' 	c #0F0F0F",
") 	c #050505",
"! 	c #060606",
"~ 	c #0D0D0D",
"{ 	c #383838",
"] 	c #313131",
"^ 	c #363636",
"/ 	c #414141",
"( 	c #3F3F3F",
"_ 	c #1B1B1B",
": 	c #000000",
"< 	c #3A3A3A",
"[ 	c #A8A8A8",
"} 	c #DCDCDC",
"| 	c #AAAAAA",
"1 	c #1A1A1A",
"2 	c #3E3E3E",
"3 	c #272727",
"4 	c #202020",
"5 	c #8C8C8C",
"6 	c #D6D6D6",
"7 	c #D8D8D8",
"8 	c #CFCFCF",
"9 	c #D7D7D7",
"0 	c #8F8F8F",
"a 	c #222222",
"b 	c #262626",
"c 	c #424242",
"d 	c #6E6E6E",
"e 	c #CACACA",
"f 	c #DBDBDB",
"g 	c #D0D0D0",
"h 	c #CBCBCB",
"i 	c #707070",
"j 	c #0E0E0E",
"k 	c #353535",
"l 	c #181818",
"m 	c #0C0C0C",
"n 	c #535353",
"o 	c #B8B8B8",
"p 	c #D2D2D2",
"q 	c #BABABA",
"r 	c #555555",
"s 	c #373737",
"t 	c #282828",
"u 	c #C7C7C7",
"v 	c #E3E3E3",
"w 	c #D1D1D1",
"x 	c #E2E2E2",
"y 	c #3D3D3D",
"z 	c #666666",
"A 	c #767676",
"B 	c #DADADA",
"C 	c #D9D9D9",
"D 	c #7B7B7B",
"E 	c #2A2A2A",
"F 	c #4C4C4C",
"G 	c #151515",
"H 	c #191919",
"I 	c #AEAEAE",
"J 	c #9D9D9D",
"K 	c #494949",
"L 	c #939393",
"M 	c #989898",
"N 	c #747474",
"O 	c #868686",
"P 	c #252525",
"Q 	c #A4A4A4",
"R 	c #ACACAC",
"S 	c #B1B1B1",
"T 	c #888888",
"U 	c #474747",
"V 	c #D5D5D5",
"W 	c #B2B2B2",
"X 	c #4A4A4A",
"Y 	c #292929",
"Z 	c #646464",
"` 	c #878787",
" .	c #838383",
"..	c #141414",
"+.	c #A9A9A9",
"@.	c #A7A7A7",
"#.	c #ADADAD",
"$.	c #727272",
"%.	c #636363",
"&.	c #686868",
"*.	c #525252",
"=.	c #858585",
"-.	c #7D7D7D",
";.	c #585858",
">.	c #2C2C2C",
",.	c #B0B0B0",
"'.	c #A5A5A5",
").	c #818181",
"!.	c #808080",
"~.	c #7C7C7C",
"{.	c #232323",
"].	c #444444",
"^.	c #ABABAB",
"/.	c #7E7E7E",
"(.	c #797979",
"_.	c #7A7A7A",
":.	c #787878",
"<.	c #010101",
"[.	c #A0A0A0",
"}.	c #6F6F6F",
"|.	c #131313",
"1.	c #4B4B4B",
"2.	c #737373",
"3.	c #A2A2A2",
"4.	c #AFAFAF",
"5.	c #101010",
"6.	c #696969",
"7.	c #9B9B9B",
"8.	c #505050",
"9.	c #242424",
"0.	c #9C9C9C",
"a.	c #676767",
"b.	c #969696",
"c.	c #A3A3A3",
"d.	c #848484",
"e.	c #0B0B0B",
"f.	c #656565",
"g.	c #959595",
"h.	c #040404",
"i.	c #B5B5B5",
"j.	c #1D1D1D",
"k.	c #1E1E1E",
"l.	c #626262",
"m.	c #777777",
"n.	c #828282",
"o.	c #8A8A8A",
"p.	c #606060",
"q.	c #090909",
"r.	c #404040",
"s.	c #A6A6A6",
"t.	c #6A6A6A",
"u.	c #454545",
"v.	c #171717",
"w.	c #020202",
"x.	c #111111",
"y.	c #070707",
"z.	c #5D5D5D",
"A.	c #8B8B8B",
"B.	c #9F9F9F",
"C.	c #575757",
"D.	c #5A5A5A",
"                                                                ",
"  . . . . . . . . . . + @ @ @ + . . . . . . . . . . . . . . .   ",
"  . . . . . . . . # @ $ % % % $ @ # . . . . . . . . . . . . .   ",
"  . . . . . . # + & * = - ; - = * & + # . . . . . . . . . . .   ",
"  . . . . # + > , = , ' ) , ! ~ { = , > + # . . . . . . . . .   ",
"  . . . # ] ^ / ( _ : < [ } | * : 1 ( / ^ ] # . . . . . . . .   ",
"  . # + $ 2 = 3 : 4 5 6 7 8 7 9 0 a : b c 2 $ @ # . . . . . .   ",
"  . @ { c > ! ~ d e f g 8 8 8 g f h i j ! ] c { @ # . . . . .   ",
"  + k { l m n o } p 8 8 8 8 8 8 8 p } q r ~ l s k # . . . . .   ",
"  + % t : $ u v w 8 8 8 8 8 8 8 8 8 w x e , : t % + . . . . .   ",
"  @ y 3 1 z @ A 8 B 8 8 8 8 8 8 8 C w D E F G b y @ . . . . .   ",
"  @ y 3 H I J K ^ L 7 6 8 8 8 6 C M k k N O G P 2 @ . . . . .   ",
"  @ y 3 l Q R S T { U I } V } W X Y Z O `  ...b ( ] # . . . .   ",
"  @ y 3 l Q +.@.#.I $.# %.q &.b *. .=.-.y ;...>.X ^ @ # . . .   ",
"  @ y 3 l Q +.@.@.@.,.'.;.H ( -.5 ).!.~.{.s ! ; ^ ].y $ @ # .   ",
"  @ y 3 l Q +.@.@.@.@.^.[ @ /.(.n _.T :.& @.T { <.~ & = * & +   ",
"  @ y 3 l Q +.@.@.@.@.+.[.] D }.|.Y 1.2.$ 3.,.4.O { ; 5.] % >   ",
"  @ y 3 l Q +.@.@.@.@.+.[.] D 6.( 7.8.9.H 0.W +.4.I 8.b ) E ,   ",
"  @ y b H | +.@.@.@.@.+.[.] D a.2 W S b.n + a.c.o d.G n 4 P *   ",
"  + % P e.=.W ^.@.@.@.+.[.] D f.& ,.I ^.W g.> >.d ).l 8.a 3 y   ",
"  # k s ..h.K 7.W +.@.+.[.] (.D > s =.,.i./._ F ! j.* b.k.b y   ",
"  # @ { c + ) ' l.@.,.| [.] m.n.o.p...* b.N G 1...G q.P m t *   ",
"  + + ] s r.c 9.: 4 _.S s.] D T t.. ! h.) , = o.e.].u.v.: b <   ",
"  @ < ( k ( X ].y v.: { T ^ t.k w.' { K - ! x.( y.{ u./ @ . $   ",
"  # f.m.r.0 z.> < = k m ) e.) q.@ = 2 , / / b w.: > < & k & +   ",
"  @ &.` A.t.& > @ & y = Y j 3 c ( $ ] @ ] ^ r.* 4 + $ + # # #   ",
"  ] f.s.B.C.$ > # # @ k * % * k ] + . . # + ] k { & + # . . .   ",
"  @ 6.).D.b.c @ + . . + @ @ @ + # . . . . . # + + # # . . . .   ",
"  # Z A ] N ~.@ # . . . . . . . . . . . . . . . . . . . . . .   ",
"  @ s < $ k ( > # . . . . . . . . . . . . . . . . . . . . . .   ",
"  # # # @ + # + . . . . . . . . . . . . . . . . . . . . . . .   ",
"                                                                "};
