/* XPM */
static char * unloadPlugin_xpm[] = {
"32 32 166 2",
"  	c None",
". 	c #2D2D2D",
"+ 	c #2F2F2F",
"@ 	c #303030",
"# 	c #2E2E2E",
"$ 	c #343434",
"% 	c #3B3B3B",
"& 	c #313131",
"* 	c #353535",
"= 	c #3D3D3D",
"- 	c #404040",
"; 	c #444444",
"> 	c #2C2C2C",
", 	c #0A0A0A",
"' 	c #2B2B2B",
") 	c #434343",
"! 	c #3C3C3C",
"~ 	c #333333",
"{ 	c #323232",
"] 	c #383838",
"^ 	c #3A3A3A",
"/ 	c #545454",
"( 	c #585858",
"_ 	c #636363",
": 	c #4F4F4F",
"< 	c #161616",
"[ 	c #070707",
"} 	c #393939",
"| 	c #060606",
"1 	c #0D0D0D",
"2 	c #373737",
"3 	c #454545",
"4 	c #555555",
"5 	c #515151",
"6 	c #505050",
"7 	c #3F3F3F",
"8 	c #626262",
"9 	c #6D6D6D",
"0 	c #0E0E0E",
"a 	c #AAAAAA",
"b 	c #DCDCDC",
"c 	c #000000",
"d 	c #1A1A1A",
"e 	c #484848",
"f 	c #717171",
"g 	c #0B0B0B",
"h 	c #656565",
"i 	c #5C5C5C",
"j 	c #676767",
"k 	c #777777",
"l 	c #111111",
"m 	c #4C4C4C",
"n 	c #ECECEC",
"o 	c #E1E1E1",
"p 	c #D1D1D1",
"q 	c #D8D8D8",
"r 	c #D6D6D6",
"s 	c #8F8F8F",
"t 	c #232323",
"u 	c #818181",
"v 	c #0C0C0C",
"w 	c #0F0F0F",
"x 	c #6C6C6C",
"y 	c #3E3E3E",
"z 	c #606060",
"A 	c #121212",
"B 	c #F4F4F4",
"C 	c #B8B8B8",
"D 	c #050505",
"E 	c #E9E9E9",
"F 	c #D9D9D9",
"G 	c #DBDBDB",
"H 	c #CDCDCD",
"I 	c #5D5D5D",
"J 	c #101010",
"K 	c #363636",
"L 	c #F8F8F8",
"M 	c #FFFFFF",
"N 	c #B3B3B3",
"O 	c #646464",
"P 	c #F3F3F3",
"Q 	c #030303",
"R 	c #B4B4B4",
"S 	c #525252",
"T 	c #222222",
"U 	c #DADADA",
"V 	c #9E9E9E",
"W 	c #010101",
"X 	c #F0F0F0",
"Y 	c #040404",
"Z 	c #6F6F6F",
"` 	c #292929",
" .	c #C7C7C7",
"..	c #575757",
"+.	c #020202",
"@.	c #B2B2B2",
"#.	c #767676",
"$.	c #4A4A4A",
"%.	c #272727",
"&.	c #A8A8A8",
"*.	c #CCCCCC",
"=.	c #595959",
"-.	c #7E7E7E",
";.	c #4D4D4D",
">.	c #181818",
",.	c #A5A5A5",
"'.	c #ACACAC",
").	c #B6B6B6",
"!.	c #5A5A5A",
"~.	c #B0B0B0",
"{.	c #797979",
"].	c #616161",
"^.	c #A4A4A4",
"/.	c #A9A9A9",
"(.	c #ABABAB",
"_.	c #5B5B5B",
":.	c #464646",
"<.	c #565656",
"[.	c #D7D7D7",
"}.	c #AFAFAF",
"|.	c #D3D3D3",
"1.	c #9D9D9D",
"2.	c #BFBFBF",
"3.	c #878787",
"4.	c #B7B7B7",
"5.	c #262626",
"6.	c #2A2A2A",
"7.	c #C8C8C8",
"8.	c #C1C1C1",
"9.	c #888888",
"0.	c #171717",
"a.	c #535353",
"b.	c #202020",
"c.	c #252525",
"d.	c #8A8A8A",
"e.	c #BDBDBD",
"f.	c #A7A7A7",
"g.	c #909090",
"h.	c #1B1B1B",
"i.	c #8C8C8C",
"j.	c #5E5E5E",
"k.	c #282828",
"l.	c #6A6A6A",
"m.	c #9A9A9A",
"n.	c #BEBEBE",
"o.	c #C2C2C2",
"p.	c #131313",
"q.	c #9F9F9F",
"r.	c #838383",
"s.	c #6E6E6E",
"t.	c #090909",
"u.	c #4B4B4B",
"v.	c #808080",
"w.	c #7C7C7C",
"x.	c #424242",
"y.	c #9B9B9B",
"z.	c #141414",
"A.	c #686868",
"B.	c #898989",
"C.	c #8E8E8E",
"D.	c #707070",
"E.	c #A6A6A6",
"F.	c #A0A0A0",
"G.	c #696969",
"H.	c #999999",
"I.	c #747474",
"                                                                ",
"  . . . . . . . . . . + @ @ @ + . . . . . . . . . . . . . . .   ",
"  . . . . . . # + + @ $ % % % $ @ # . . . . # # # . . . . . .   ",
"  . . . . # & * = = - ; > , ' ) ! ~ + # + { ] ^ * @ # . . . .   ",
"  . . . # { ! / ( _ : < [ } | 1 ] ) } ~ 2 3 4 5 6 ^ & # . . .   ",
"  . . # { 7 8 9 0 @ : 6 a b a ! c d - e 5 f { g h i % & . . .   ",
"  . # ~ - j k l . , m n o p q r s t | ; u = v . w x i ^ @ . .   ",
"  . @ y z 9 A ^ B C D h E F p p G H u I $ D C B ^ J h : $ # .   ",
"  + K ) ) [ > L M M N c O E F p p b P I Q R M M L > v S ^ # .   ",
"  + ! ~ > T w C M M M N c O E U U E O Q N M M M C l { 4 ] # .   ",
"  + = . @ V ! W N M M M N c O X X O c N M M M N Y % Z 3 { # .   ",
"  @ = ` T C  ...+.N M M M @.W Z Z W @.M M M N Y = #.$.* + . .   ",
"  @ = %.d &.C *.=.W N M M M N c c N M M M R D 7 -.;.K + . . .   ",
"  @ = %.>.,.'.).*.!.W N M M M ~.~.M M M N W ' {.].= { + . . .   ",
"  @ = %.>.^./.(.).H _.W N M M M M M M N Y :.<.` = 3 = $ @ # .   ",
"  @ = %.>.^./.&.'.C [.j Y }.M M M M }.Y 5 |.1.- +.1 ~ ) ! ~ +   ",
"  @ = %.>.^./.&.'.C [.j Y }.M M M M }.Y 5 |.2.N 3.] , J & % {   ",
"  @ = %.>.^./.(.).H _.W N M M M M M M N Q _.H 4.@.}.6 5.D 6.}   ",
"  @ = 5.d a '.).*.!.W N M M M ~.~.M M M N W =.7.8.9.0.a.b.c.!   ",
"  + % c.g d.e.H =.W N M M M R c c R M M M N +.7 f.g.b.S T %.=   ",
"  # * 2 h.t i.!.+.N M M M N Q j.!.Q N M M M N W k.l.<.m.b.5.=   ",
"  # @ = ( 9 k.W N M M M N D 5 n.o.4 Y N M M M R D 6.5 7 l ` !   ",
"  + @ ! I } p.4.M M M N Y ^ ~.q.r.s.> Y N M M M C A * - t.%.}   ",
"  @ % u...g ' L M M R Q ;.{.v.! v @ w.x.Y N M M L ' 0 ].= + $   ",
"  # h w.].y.z.^ B C D * !.6.0 , & $.( w.y Y C B ^ l l.4 ! $ +   ",
"  @ A.B.g.C.D.w . v = u :.0.` x.7 K ] m k ! 1 . 0 f ].! & # .   ",
"  & h E.F.O z A.g & f 6 ) = ! * & + + K u.D.{ g G.z y { . . .   ",
"  @ G.u !.H.;.S S 4 3 2 { & @ + # . . + * 3 4 a.5 % { # . . .   ",
"  # O #.& I.-.2 ! ] { + . . . . . . . . + { ] ^ * @ # . . . .   ",
"  @ 2 ^ $ * 7 { + # . . . . . . . . . . . . # # # . . . . . .   ",
"  # # # @ + # + . . . . . . . . . . . . . . . . . . . . . . .   ",
"                                                                "};
